<?xml version="1.0" encoding="utf-8"?>
<!-- Generator: Adobe Illustrator 26.5.0, SVG Export Plug-In . SVG Version: 6.00 Build 0)  -->
<svg version="1.1" id="Layer_1" xmlns="http://www.w3.org/2000/svg" xmlns:xlink="http://www.w3.org/1999/xlink" x="0px" y="0px"
	 viewBox="0 0 36.49 48.65" style="enable-background:new 0 0 36.49 48.65;" xml:space="preserve">
<style type="text/css">
	.st0{fill:#989898;}
</style>
<g>
	<g>
		<path class="st0" d="M31.9,31.4l-1.09-0.63l0.66-1.14c0.05-0.09,0.07-0.19,0.07-0.28c0-0.19-0.1-0.38-0.28-0.48
			c-0.09-0.05-0.18-0.08-0.28-0.08c-0.2,0-0.39,0.1-0.49,0.28l-0.66,1.14l-0.68-0.39l1.3-2.24c0.05-0.09,0.07-0.18,0.07-0.28
			c0-0.19-0.1-0.38-0.28-0.49c-0.09-0.05-0.18-0.07-0.28-0.07c-0.2,0-0.39,0.1-0.49,0.28l-1.29,2.24l-2.32-1.34l0.3-0.52
			c0.05-0.09,0.07-0.18,0.07-0.27c0-0.19-0.1-0.37-0.27-0.47c-0.09-0.05-0.18-0.07-0.27-0.07c-0.19,0-0.37,0.1-0.47,0.27l-0.3,0.51
			l-2.86-1.65l-0.11-0.4l0.07-0.07c0.11-0.11,0.16-0.25,0.16-0.4c0-0.15-0.05-0.29-0.16-0.4c-0.07-0.07-0.15-0.12-0.24-0.14
			c0.06-0.03,0.12-0.07,0.17-0.12c0.11-0.11,0.17-0.25,0.17-0.4c0-0.13-0.04-0.25-0.13-0.36v0l-0.09-0.09l0.1-0.38l2.91-1.68
			l0.31,0.54c0.1,0.18,0.28,0.27,0.47,0.27c0.09,0,0.18-0.02,0.27-0.07c0.18-0.1,0.27-0.28,0.27-0.47c0-0.09-0.02-0.19-0.07-0.27
			l-0.31-0.54l2.32-1.34l1.32,2.29c0.11,0.18,0.29,0.28,0.49,0.28c0.1,0,0.19-0.03,0.28-0.08c0.18-0.11,0.28-0.3,0.28-0.49
			c0-0.1-0.02-0.19-0.07-0.28l-1.32-2.29l0.68-0.39l0.71,1.22c0.1,0.18,0.29,0.28,0.49,0.28c0.1,0,0.19-0.03,0.28-0.08
			c0.18-0.11,0.28-0.3,0.28-0.49c0-0.1-0.03-0.19-0.08-0.28l-0.71-1.22l1.09-0.63c0.16-0.09,0.61-0.41,1.01-0.75
			c0.2-0.17,0.39-0.34,0.51-0.5c0.1-0.12,0.18-0.23,0.18-0.35c0-0.03-0.01-0.06-0.02-0.09c-0.07-0.1-0.18-0.12-0.3-0.12
			c-0.05,0-0.11,0.01-0.17,0.01c-0.62,0.07-1.66,0.46-1.91,0.59l-1.09,0.63l-0.66-1.14c-0.1-0.18-0.29-0.28-0.49-0.28
			c-0.09,0-0.19,0.02-0.28,0.08c-0.18,0.1-0.28,0.29-0.28,0.49c0,0.09,0.03,0.19,0.08,0.28l0.66,1.14l-0.67,0.39l-1.29-2.24
			c-0.1-0.18-0.29-0.28-0.49-0.28c-0.09,0-0.19,0.03-0.28,0.08c-0.18,0.1-0.28,0.29-0.28,0.49c0,0.1,0.02,0.19,0.08,0.28l1.29,2.24
			l-2.32,1.34L24.87,19c-0.1-0.18-0.28-0.27-0.47-0.27c-0.09,0-0.19,0.02-0.27,0.07c-0.17,0.1-0.27,0.28-0.27,0.47
			c0,0.09,0.02,0.18,0.07,0.27l0.3,0.51l-2.86,1.65l-0.41-0.11l-0.02-0.1c-0.04-0.15-0.14-0.27-0.26-0.34
			c-0.08-0.05-0.18-0.07-0.28-0.07c-0.05,0-0.1,0.01-0.14,0.02c-0.1,0.02-0.18,0.08-0.24,0.14c0-0.02,0-0.04,0-0.06
			c0-0.05-0.01-0.1-0.02-0.15c-0.04-0.15-0.14-0.27-0.26-0.34c-0.09-0.05-0.18-0.08-0.28-0.08c-0.03,0-0.06,0-0.1,0.01v0l-0.12,0.03
			l-0.29-0.28v-3.37h0.62c0.3,0,0.54-0.24,0.54-0.54c0-0.3-0.24-0.54-0.54-0.54h-0.62v-2.68h2.65c0.31,0,0.56-0.25,0.56-0.56
			c0-0.31-0.25-0.56-0.56-0.56h-2.65v-0.78h1.41c0.31,0,0.56-0.25,0.56-0.56c0-0.31-0.25-0.56-0.56-0.56h-1.41V8.96
			c0-0.18-0.05-0.73-0.14-1.25c-0.05-0.26-0.11-0.51-0.18-0.7c-0.07-0.18-0.14-0.34-0.31-0.35c-0.17,0.01-0.24,0.17-0.33,0.35
			c-0.25,0.56-0.44,1.67-0.44,1.95v1.25h-1.32c-0.31,0-0.56,0.25-0.56,0.56c0,0.31,0.25,0.56,0.56,0.56h1.32v0.78h-2.59
			c-0.31,0-0.56,0.25-0.56,0.56c0,0.31,0.25,0.56,0.56,0.56h2.59v2.68h-0.59c-0.3,0-0.55,0.24-0.55,0.54c0,0.3,0.24,0.54,0.55,0.54
			h0.59v3.3l-0.3,0.29l-0.09-0.03c-0.05-0.01-0.1-0.02-0.15-0.02c-0.1,0-0.19,0.03-0.28,0.08c-0.13,0.07-0.22,0.19-0.26,0.34
			c-0.01,0.05-0.02,0.1-0.02,0.15c0,0.04,0.01,0.09,0.02,0.13c-0.06-0.04-0.12-0.07-0.19-0.09c-0.05-0.01-0.1-0.02-0.15-0.02
			c-0.1,0-0.2,0.03-0.28,0.08c-0.11,0.06-0.2,0.16-0.25,0.29h0l-0.03,0.12l-0.39,0.1l-2.92-1.68l0.31-0.54
			c0.05-0.09,0.07-0.18,0.07-0.27c0-0.19-0.1-0.37-0.28-0.47c-0.08-0.05-0.18-0.07-0.27-0.07c-0.19,0-0.37,0.1-0.47,0.27l-0.31,0.54
			l-2.33-1.34l1.32-2.29c0.05-0.09,0.08-0.19,0.08-0.28c0-0.19-0.1-0.38-0.28-0.48c-0.09-0.05-0.19-0.08-0.28-0.08
			c-0.2,0-0.38,0.1-0.49,0.28l-1.32,2.29l-0.67-0.39L8.05,16c0.05-0.09,0.08-0.18,0.08-0.28c0-0.2-0.1-0.38-0.28-0.49
			c-0.09-0.05-0.19-0.08-0.28-0.08c-0.2,0-0.39,0.1-0.49,0.28l-0.71,1.22l-1.09-0.63c-0.16-0.09-0.66-0.32-1.15-0.5
			c-0.25-0.09-0.49-0.16-0.69-0.2c-0.07-0.01-0.14-0.02-0.21-0.02c-0.1,0-0.2,0.02-0.25,0.11c-0.02,0.04-0.03,0.07-0.03,0.1
			c0,0.12,0.08,0.23,0.17,0.36c0.36,0.5,1.22,1.21,1.46,1.36l1.09,0.63l-0.66,1.14c-0.05,0.09-0.08,0.19-0.08,0.28
			c0,0.2,0.1,0.38,0.28,0.49c0.09,0.05,0.18,0.08,0.28,0.08c0.19,0,0.38-0.1,0.49-0.28l0.66-1.14l0.67,0.39l-1.29,2.24
			c-0.05,0.09-0.08,0.19-0.08,0.28c0,0.19,0.1,0.38,0.28,0.49c0.09,0.05,0.19,0.07,0.28,0.07c0.2,0,0.38-0.1,0.49-0.28l1.29-2.24
			l2.32,1.34l-0.3,0.52c-0.05,0.09-0.07,0.18-0.07,0.27c0,0.19,0.1,0.37,0.27,0.47c0.09,0.05,0.18,0.07,0.27,0.07
			c0.19,0,0.37-0.1,0.47-0.27l0.3-0.52l2.86,1.65l0.11,0.41l-0.07,0.07c-0.11,0.11-0.16,0.25-0.16,0.4c0,0.15,0.05,0.29,0.16,0.4
			c0.07,0.07,0.15,0.12,0.24,0.14c-0.06,0.03-0.13,0.07-0.18,0.12c-0.11,0.11-0.16,0.25-0.16,0.4c0,0.13,0.04,0.25,0.13,0.36l0,0
			l0.09,0.09l-0.1,0.39l-2.91,1.68l-0.31-0.54c-0.1-0.18-0.28-0.27-0.47-0.27c-0.09,0-0.19,0.02-0.27,0.07
			c-0.17,0.1-0.27,0.28-0.27,0.47c0,0.09,0.03,0.18,0.08,0.27l0.31,0.54l-2.32,1.34l-1.32-2.29c-0.11-0.18-0.29-0.28-0.49-0.28
			c-0.09,0-0.19,0.03-0.28,0.08c-0.18,0.1-0.28,0.29-0.28,0.49c0,0.1,0.03,0.19,0.07,0.28l1.32,2.29l-0.67,0.39l-0.71-1.22
			c-0.1-0.18-0.29-0.28-0.49-0.28c-0.09,0-0.19,0.03-0.28,0.08c-0.18,0.11-0.28,0.3-0.28,0.49c0,0.1,0.02,0.19,0.07,0.28l0.71,1.22
			L4.58,31.4c-0.15,0.09-0.6,0.41-1.01,0.75c-0.2,0.17-0.39,0.34-0.51,0.5c-0.1,0.12-0.18,0.23-0.18,0.35c0,0.03,0.01,0.06,0.02,0.1
			c0.06,0.1,0.18,0.12,0.3,0.12c0.05,0,0.11,0,0.16-0.01c0.62-0.07,1.67-0.46,1.91-0.59l1.09-0.63l0.66,1.14
			c0.1,0.18,0.29,0.28,0.49,0.28c0.09,0,0.19-0.02,0.28-0.07c0.18-0.11,0.28-0.29,0.28-0.49c0-0.09-0.02-0.19-0.08-0.28l-0.66-1.14
			l0.67-0.39l1.3,2.24c0.1,0.18,0.29,0.28,0.49,0.28c0,0,0,0,0,0c0.1,0,0.19-0.02,0.28-0.07c0.18-0.1,0.28-0.29,0.28-0.49
			c0-0.1-0.02-0.19-0.07-0.28l-1.3-2.24l2.33-1.34l0.3,0.52c0.1,0.18,0.28,0.27,0.47,0.27c0.09,0,0.19-0.02,0.27-0.07
			c0.18-0.1,0.27-0.29,0.27-0.47c0-0.09-0.02-0.19-0.07-0.27l-0.3-0.52l2.86-1.65l0.41,0.11l0.02,0.1c0.04,0.15,0.14,0.27,0.26,0.34
			c0.09,0.05,0.18,0.08,0.28,0.08c0.05,0,0.1-0.01,0.15-0.02c0.09-0.02,0.18-0.08,0.24-0.14c0,0.02,0,0.04,0,0.06
			c0,0.05,0.01,0.1,0.02,0.15c0.04,0.15,0.14,0.27,0.26,0.34c0.08,0.05,0.18,0.07,0.28,0.07c0.03,0,0.06,0,0.09-0.01v0L17.17,28
			c0.01,0,0.01,0,0.01,0l0.05-0.01l0,0l0.03-0.01l0.28,0.28v3.37h-0.61c0,0,0,0-0.01,0c0,0,0,0,0,0c0,0,0,0,0,0
			c-0.3,0-0.53,0.25-0.54,0.54c0,0,0,0,0,0c0,0.3,0.24,0.55,0.54,0.55h0.62v2.68H14.9c-0.31,0-0.56,0.25-0.56,0.56
			c0,0.31,0.25,0.56,0.56,0.56h2.65v0.78h-1.41c-0.31,0-0.56,0.25-0.56,0.56c0,0.31,0.25,0.56,0.56,0.56h1.41v1.25
			c0,0.18,0.05,0.73,0.15,1.25c0.05,0.26,0.11,0.51,0.17,0.7c0.07,0.18,0.14,0.34,0.31,0.35c0.17-0.01,0.24-0.17,0.33-0.35
			c0.25-0.57,0.44-1.67,0.44-1.95v-1.25h1.32c0.27,0,0.5-0.19,0.55-0.45l0.01,0.01v-0.12l0,0c0,0,0,0,0,0
			c0-0.31-0.25-0.56-0.56-0.56h-1.32v-0.78h2.59c0.31,0,0.56-0.25,0.56-0.56c0-0.31-0.25-0.56-0.56-0.56h-2.59v-2.68h0.65v0
			c0.28-0.03,0.49-0.26,0.49-0.54c0-0.3-0.24-0.54-0.54-0.54h-0.6v-3.3l0.3-0.29l0.1,0.03c0.05,0.01,0.1,0.02,0.15,0.02
			c0.1,0,0.2-0.03,0.28-0.07c0.12-0.07,0.22-0.19,0.26-0.34c0.01-0.05,0.02-0.1,0.02-0.15c0-0.04-0.01-0.09-0.02-0.13
			c0.05,0.04,0.12,0.07,0.19,0.09c0.05,0.01,0.1,0.02,0.15,0.02c0.1,0,0.2-0.03,0.28-0.08c0.11-0.06,0.2-0.16,0.25-0.29h0l0.01-0.04
			c0,0,0-0.01,0-0.01l0.01-0.02L20.92,27l0.39-0.1l2.91,1.68l-0.31,0.54c-0.05,0.09-0.07,0.18-0.07,0.27c0,0.19,0.1,0.37,0.27,0.47
			c0.09,0.05,0.18,0.07,0.27,0.07c0.19,0,0.37-0.1,0.47-0.27l0.31-0.54l2.32,1.34l-1.32,2.29c-0.05,0.09-0.07,0.18-0.07,0.28
			c0,0.19,0.1,0.38,0.28,0.49c0.09,0.05,0.18,0.08,0.28,0.08c0.19,0,0.38-0.1,0.49-0.28l1.32-2.29l0.67,0.39l-0.71,1.22
			c-0.05,0.09-0.07,0.19-0.07,0.28c0,0.2,0.1,0.38,0.28,0.49c0.09,0.05,0.19,0.08,0.28,0.08c0.2,0,0.39-0.1,0.49-0.28l0.71-1.22
			l1.09,0.63c0.16,0.09,0.66,0.32,1.15,0.5c0.25,0.09,0.49,0.16,0.69,0.2c0.07,0.01,0.14,0.02,0.2,0.02c0.1,0,0.2-0.03,0.26-0.11
			c0.02-0.04,0.03-0.07,0.03-0.11c0-0.11-0.07-0.22-0.16-0.35C33,32.26,32.14,31.54,31.9,31.4z M16.42,32.13L16.42,32.13
			c0,0,0,0,0.01,0C16.43,32.12,16.42,32.13,16.42,32.13z M16.44,32.12L16.44,32.12L16.44,32.12L16.44,32.12z M19.45,26.23
			l-0.51,0.14v-0.83l0.77,0.44L19.45,26.23z M17.19,26.32l-0.37-0.37l0.72-0.42v0.88L17.19,26.32z M17.04,22.41l0.51-0.14v0.83
			l-0.77-0.44L17.04,22.41z M19.29,22.32l0.37,0.37l-0.72,0.42v-0.88L19.29,22.32z M15.99,24.41l0.14-0.51l0.72,0.42l-0.77,0.44
			L15.99,24.41z M20.5,24.24l-0.14,0.51l-0.72-0.42l0.76-0.44L20.5,24.24z"/>
		<path class="st0" d="M18.17,42.53l-0.05,0c-0.51-0.04-0.69-0.5-0.76-0.69c-0.08-0.23-0.15-0.51-0.2-0.8
			c-0.09-0.51-0.15-1.1-0.15-1.35v-0.71h-0.87c-0.61,0-1.1-0.5-1.1-1.1c0-0.32,0.13-0.6,0.35-0.8H14.9c-0.61,0-1.1-0.49-1.1-1.1
			c0-0.61,0.5-1.1,1.1-1.1H17v-1.6h-0.08c-0.6,0-1.08-0.49-1.08-1.09c0.01-0.59,0.49-1.08,1.07-1.08H17v-2.53
			c-0.18-0.01-0.36-0.06-0.51-0.14c-0.14-0.08-0.26-0.19-0.36-0.33c-0.2,0.02-0.41-0.04-0.59-0.14c-0.17-0.1-0.31-0.24-0.41-0.4
			L13,28.78l0.03,0.05c0.1,0.17,0.15,0.35,0.15,0.54c0,0.39-0.21,0.75-0.54,0.94c-0.51,0.29-1.2,0.1-1.48-0.4l-0.03-0.05l-1.39,0.8
			l1.02,1.77c0.1,0.17,0.15,0.36,0.15,0.55c0,0.39-0.21,0.76-0.56,0.96c-0.51,0.29-1.21,0.1-1.5-0.4L8.59,33.1
			c-0.07,0.29-0.26,0.55-0.52,0.7c-0.48,0.29-1.21,0.11-1.51-0.4l-0.39-0.67l-0.62,0.36c-0.32,0.18-1.43,0.58-2.12,0.66l-0.22,0.01
			c-0.34,0-0.59-0.12-0.75-0.36l-0.09-0.14L2.35,33c0.01-0.32,0.19-0.55,0.3-0.69c0.15-0.18,0.36-0.38,0.58-0.57
			c0.4-0.33,0.88-0.69,1.09-0.81l0.62-0.36L4.5,29.82c-0.1-0.16-0.15-0.35-0.15-0.55c0-0.39,0.21-0.76,0.55-0.96
			c0.28-0.16,0.59-0.19,0.87-0.11L5.53,27.8c-0.1-0.17-0.15-0.36-0.15-0.55c0-0.39,0.21-0.76,0.55-0.96c0.52-0.3,1.21-0.11,1.51,0.4
			l1.05,1.82l1.39-0.8l-0.04-0.07c-0.1-0.16-0.15-0.35-0.15-0.54c0-0.39,0.21-0.75,0.54-0.94c0.5-0.29,1.19-0.1,1.48,0.4l0.04,0.07
			l2.15-1.24l-0.11-0.11l0.08-0.11c-0.03-0.1-0.05-0.21-0.05-0.32c0-0.17,0.03-0.32,0.1-0.47c-0.11-0.17-0.17-0.38-0.17-0.59
			c0-0.19,0.05-0.38,0.15-0.55l-2.14-1.24l-0.03,0.05c-0.28,0.49-0.97,0.69-1.48,0.4c-0.34-0.2-0.55-0.56-0.55-0.94
			c0-0.19,0.05-0.37,0.14-0.54l0.03-0.05l-1.39-0.8L7.47,21.9c-0.31,0.52-1.01,0.7-1.51,0.41c-0.34-0.2-0.55-0.56-0.55-0.96
			c0-0.19,0.05-0.38,0.15-0.55l0.26-0.44c-0.29,0.09-0.63,0.05-0.88-0.11c-0.33-0.18-0.54-0.55-0.54-0.95
			c0-0.19,0.05-0.39,0.15-0.55l0.39-0.67l-0.62-0.36c-0.32-0.19-1.23-0.96-1.63-1.5c-0.11-0.16-0.26-0.37-0.27-0.66
			c0-0.14,0.03-0.25,0.09-0.37c0.15-0.23,0.47-0.46,1.02-0.38c0.25,0.04,0.52,0.12,0.8,0.23c0.51,0.18,1.05,0.42,1.24,0.54
			l0.61,0.36l0.43-0.76c0.3-0.51,1.01-0.7,1.51-0.4c0.26,0.15,0.45,0.4,0.52,0.7l0.24-0.41c0.29-0.51,1.01-0.7,1.51-0.4
			c0.33,0.19,0.55,0.56,0.55,0.95c0,0.19-0.05,0.38-0.15,0.55l-1.06,1.83l1.39,0.8l0.04-0.07c0.28-0.5,0.99-0.69,1.48-0.39
			c0.33,0.19,0.54,0.55,0.54,0.94c0,0.19-0.05,0.37-0.15,0.54L13,19.87l2.19,1.27c0.1-0.17,0.23-0.29,0.39-0.38
			c0.12-0.08,0.28-0.13,0.45-0.14c0.1-0.18,0.24-0.34,0.43-0.44c0.16-0.09,0.35-0.14,0.54-0.14l-0.05-2.47
			c-0.6,0-1.09-0.49-1.09-1.08c0-0.6,0.49-1.09,1.09-1.09H17v-1.6h-2.05c-0.61,0-1.1-0.49-1.1-1.1c0-0.61,0.5-1.1,1.1-1.1h0.51
			c-0.21-0.2-0.35-0.49-0.35-0.8c0-0.61,0.5-1.1,1.1-1.1H17V8.96c0-0.36,0.21-1.54,0.48-2.16c0.11-0.23,0.3-0.63,0.78-0.67
			c0.6,0.04,0.78,0.5,0.85,0.69c0.08,0.23,0.15,0.5,0.2,0.79c0.09,0.51,0.15,1.11,0.15,1.35v0.71h0.87c0.61,0,1.1,0.49,1.1,1.1
			c0,0.32-0.13,0.6-0.35,0.8h0.48c0.61,0,1.1,0.5,1.1,1.1c0,0.61-0.5,1.1-1.1,1.1h-2.11v1.6h0.08c0.6,0,1.08,0.49,1.08,1.09
			c0,0.6-0.49,1.08-1.08,1.08h-0.08v2.53c0.18,0,0.35,0.06,0.51,0.14c0.14,0.08,0.27,0.2,0.36,0.33c0.21-0.02,0.42,0.04,0.6,0.15
			c0.17,0.1,0.3,0.23,0.4,0.4l2.14-1.24l-0.03-0.05c-0.1-0.17-0.15-0.35-0.15-0.54c0-0.39,0.21-0.75,0.54-0.94
			c0.52-0.3,1.2-0.1,1.49,0.4l0.03,0.05l1.39-0.8l-1.02-1.77c-0.1-0.16-0.15-0.36-0.15-0.55c0-0.39,0.21-0.76,0.55-0.95
			c0.55-0.3,1.22-0.1,1.51,0.4l0.25,0.44c0.07-0.29,0.26-0.54,0.52-0.7c0.49-0.29,1.22-0.11,1.51,0.4l0.39,0.67l0.62-0.36
			c0.33-0.18,1.44-0.59,2.12-0.66l0.23-0.01c0.43,0,0.65,0.2,0.76,0.37l0.09,0.14l0.02,0.25c-0.01,0.31-0.16,0.52-0.3,0.69
			c-0.14,0.17-0.33,0.35-0.59,0.57c-0.42,0.35-0.89,0.69-1.08,0.8l-0.62,0.36l0.43,0.75c0.1,0.17,0.15,0.36,0.15,0.55
			c0,0.39-0.21,0.75-0.55,0.95c-0.27,0.16-0.59,0.19-0.87,0.11l0.24,0.41c0.1,0.17,0.15,0.36,0.15,0.55c0,0.39-0.21,0.76-0.55,0.96
			c-0.54,0.31-1.22,0.1-1.51-0.41l-1.05-1.82l-1.39,0.8l0.04,0.07c0.09,0.16,0.15,0.35,0.15,0.54c0,0.39-0.21,0.75-0.55,0.94
			c-0.5,0.29-1.2,0.1-1.48-0.4l-0.04-0.06l-2.15,1.24l0.04,0.04l-0.03,0.09c0.05,0.13,0.08,0.27,0.08,0.42
			c0,0.17-0.04,0.33-0.11,0.47c0.11,0.18,0.17,0.38,0.17,0.58c0,0.19-0.05,0.38-0.15,0.55l2.14,1.24l0.03-0.05
			c0.28-0.49,0.99-0.68,1.48-0.4c0.33,0.19,0.54,0.55,0.54,0.94c0,0.19-0.05,0.38-0.15,0.55l-0.02,0.04l1.39,0.8l1.03-1.77
			c0.29-0.51,1-0.69,1.5-0.41c0.34,0.2,0.55,0.57,0.55,0.96c0,0.19-0.05,0.37-0.14,0.54l-0.26,0.45c0.28-0.08,0.61-0.05,0.87,0.11
			c0.33,0.19,0.55,0.56,0.55,0.95c0,0.2-0.05,0.39-0.15,0.55l-0.39,0.67l0.62,0.35c0.32,0.19,1.23,0.96,1.63,1.51
			c0.11,0.16,0.27,0.38,0.27,0.67c0,0.13-0.03,0.25-0.09,0.36c-0.18,0.27-0.43,0.4-0.72,0.4l0,0c-0.09,0-0.19-0.01-0.29-0.02
			c-0.24-0.04-0.52-0.12-0.8-0.23c-0.5-0.18-1.03-0.42-1.24-0.54l-0.61-0.35l-0.44,0.76c-0.29,0.51-0.99,0.7-1.51,0.4
			c-0.26-0.15-0.45-0.41-0.52-0.7l-0.24,0.41c-0.3,0.52-1.03,0.7-1.52,0.39c-0.33-0.18-0.54-0.55-0.54-0.95
			c0-0.19,0.05-0.38,0.14-0.55l1.06-1.83l-1.39-0.8l-0.04,0.07c-0.29,0.5-0.98,0.69-1.49,0.4c-0.33-0.19-0.54-0.55-0.54-0.94
			c0-0.19,0.05-0.38,0.15-0.54l0.04-0.07l-2.19-1.27c-0.1,0.17-0.24,0.29-0.39,0.38c-0.13,0.08-0.28,0.13-0.45,0.14
			c-0.1,0.18-0.24,0.34-0.43,0.44c-0.16,0.09-0.35,0.15-0.54,0.15v2.47h0.06c0.6,0,1.08,0.49,1.08,1.08c0,0.56-0.42,1.03-0.98,1.08
			l-0.16,0v1.6h2.05c0.61,0,1.1,0.49,1.1,1.1c0,0.61-0.5,1.11-1.1,1.11h-0.52c0.21,0.2,0.34,0.49,0.34,0.8v1.54l-0.53-0.6
			c-0.17,0.1-0.36,0.16-0.56,0.16h-0.78v0.71c0,0.36-0.21,1.55-0.48,2.16c-0.1,0.22-0.3,0.63-0.78,0.67L18.17,42.53z M16.13,37.85
			l1.95,0.04v1.79c0,0.13,0.04,0.61,0.12,1.08c0.11-0.46,0.19-0.95,0.19-1.09v-1.79l1.86-0.02l-1.86-0.02v-1.86h3.13l-3.13-0.04
			v-3.76h1.19l-1.19-0.01V28.1l0.68-0.67l0.41,0.1l-0.18-0.71l-0.91,0.24V24.6l2.19,1.26l-0.73,0.72l0.51,0.38l0.11-0.37l0.91-0.27
			l3.57,2.06l-0.58,1l0.59-1l3.26,1.88l-1.59,2.76l1.63-2.74l1.61,0.93l-0.98,1.69l1.01-1.67l1.56,0.9c0.12,0.07,0.55,0.27,1,0.44
			c-0.34-0.33-0.73-0.64-0.85-0.71l-1.55-0.89l0.93-1.61l-0.97,1.59l-1.62-0.93l1.57-2.71L28.39,30l-3.26-1.88l0.56-0.98l-0.57,0.98
			l-3.52-2.03l-0.25-0.93l0.3-0.3l-0.7-0.21l-0.25,0.92l-2.14-1.24l2.18-1.26l0.27,1l0.56-0.25L21.3,23.5l0.25-0.9l3.57-2.07
			l0.58,1.01l-0.57-1.01l3.26-1.88l1.59,2.76l-1.56-2.78l1.61-0.93l0.98,1.69l-0.94-1.71l1.55-0.9c0.1-0.06,0.5-0.34,0.88-0.65
			c-0.45,0.13-0.93,0.32-1.04,0.38l-1.55,0.9l-0.93-1.61l0.89,1.63l-1.61,0.93l-1.56-2.71l1.53,2.73l-3.26,1.88l-0.57-0.99
			l0.56,0.99l-3.52,2.03l-0.93-0.25l-0.12-0.41l-0.53,0.5l0.68,0.67l-2.15,1.24v-2.52l1.04,0.28l0.02-0.58l-0.1-0.04l-0.3,0.08
			L18.4,20.6v-4.13h1.16l-1.16-0.01V12.7h3.19l-3.19-0.04v-1.86h1.95l-1.95-0.04V8.96c0-0.13-0.04-0.61-0.12-1.08
			c-0.11,0.46-0.19,0.95-0.19,1.09v1.79h-1.86l1.86,0.04v1.86h-3.13l3.13,0.04v3.77h-1.13l1.13,0.01v4.07l-0.68,0.67l-0.3-0.08l0,0
			l-0.11-0.02l0.16,0.71l0.94-0.25v2.48l-2.19-1.26l0.73-0.74l-0.5-0.36l-0.05,0.1L16,22.09l-0.9,0.24l-3.57-2.06l0.58-1l-0.59,1
			l-3.26-1.88l1.59-2.76l-1.63,2.74l-1.61-0.93l0.98-1.69L6.57,17.4l-1.56-0.9c-0.11-0.07-0.54-0.26-1-0.43
			c0.34,0.33,0.73,0.64,0.85,0.71l1.55,0.89l-0.93,1.61l0.97-1.59l1.61,0.93L6.5,21.33l1.6-2.69l3.26,1.88l-0.57,0.99l0.58-0.98
			l3.52,2.03l0.24,0.92l-0.29,0.3l0.7,0.21l0.24-0.91l2.14,1.24l-2.19,1.26l-0.26-1l-0.56,0.25l0.28,0.3l-0.25,0.91l-3.58,2.07
			l-0.58-1.01l0.57,1.01L8.1,30L6.5,27.24l1.55,2.78l-1.61,0.93l-0.98-1.69l0.94,1.71l-1.56,0.9c-0.11,0.07-0.5,0.34-0.87,0.65
			c0.45-0.13,0.92-0.31,1.04-0.38l1.55-0.9l0.93,1.61l-0.89-1.63l1.61-0.93L9.78,33l-1.53-2.73l3.26-1.88l0.57,0.98l-0.56-0.99
			l3.52-2.04l0.93,0.25l0.12,0.41l0.53-0.49l-0.68-0.68l2.14-1.24v2.52l-0.98-0.26l-0.09,0.62l0.38-0.1l0.69,0.66v4.13h-1.16
			l1.16,0.01v3.76H14.9l3.19,0.04v1.86H16.13z"/>
	</g>
</g>
</svg>
