<?xml version="1.0" encoding="utf-8"?>
<!-- Generator: Adobe Illustrator 26.5.0, SVG Export Plug-In . SVG Version: 6.00 Build 0)  -->
<svg version="1.1" id="Layer_1" xmlns="http://www.w3.org/2000/svg" xmlns:xlink="http://www.w3.org/1999/xlink" x="0px" y="0px"
	 viewBox="0 0 134 238" style="enable-background:new 0 0 134 238;" xml:space="preserve">
<style type="text/css">
	.st0{fill:#AF294D;}
	.st1{fill:#D3584A;}
	.st2{fill:#FBB87D;}
	.st3{fill:#FFDFA4;}
	.st4{fill:#A4D7F4;}
	.st5{fill:#69B3E3;}
	.st6{fill:#3989C9;}
	.st7{fill:#3C5DAA;}
	.st8{fill:none;stroke:#666666;stroke-miterlimit:10;}
	.st9{fill:#666666;}
	.st10{font-family:'Roboto-Regular';}
	.st11{font-size:16.8118px;}
</style>
<g>
	<g>
		<rect x="102.91" y="7.72" class="st0" width="22.42" height="22.42"/>
		<rect x="102.91" y="36.54" class="st1" width="22.42" height="22.42"/>
		<rect x="102.91" y="65.36" class="st2" width="22.42" height="22.42"/>
		<rect x="102.91" y="94.18" class="st3" width="22.42" height="22.42"/>
		<rect x="102.91" y="123" class="st4" width="22.42" height="22.42"/>
		<rect x="102.91" y="151.82" class="st5" width="22.42" height="22.42"/>
		<rect x="102.91" y="180.64" class="st6" width="22.42" height="22.42"/>
		<rect x="102.91" y="209.46" class="st7" width="22.42" height="22.42"/>
	</g>
	<g>
		<g>
			<line class="st8" x1="60.18" y1="36.87" x2="60.18" y2="117"/>
			<g>
				<path class="st9" d="M60.18,30.84c-1.05,2.84-2.85,6.36-4.76,8.55l4.76-1.72l4.75,1.72C63.03,37.2,61.23,33.68,60.18,30.84z"/>
			</g>
		</g>
	</g>
	<g>
		<g>
			<line class="st8" x1="60.18" y1="197.82" x2="60.18" y2="154.12"/>
			<g>
				<path class="st9" d="M60.18,203.86c1.05-2.84,2.85-6.36,4.76-8.55l-4.76,1.72l-4.75-1.72
					C57.32,197.49,59.12,201.02,60.18,203.86z"/>
			</g>
		</g>
	</g>
	<text transform="matrix(1 0 0 1 6.2031 138.9583)" class="st10 st11">Comfortable</text>
	<text transform="matrix(1 0 0 1 32.1552 24.7698)" class="st10 st11">Too Hot</text>
	<text transform="matrix(1 0 0 1 22.7514 225.1106)" class="st10 st11">Too Cold</text>
</g>
</svg>
