<?xml version="1.0" encoding="UTF-8"?>
<svg id="Layer_1" data-name="Layer 1" xmlns="http://www.w3.org/2000/svg" viewBox="0 0 25.02 39.93">
  <defs>
    <style>
      .cls-1 {
        fill: #989898;
      }
    </style>
  </defs>
  <path class="cls-1" d="M19.17,9.55h-4.76c-.48,0-.86-.39-.86-.86V.86c0-.32-.18-.61-.46-.76-.42-.22-.94-.06-1.16,.36L4.33,14.7c-.13,.25-.2,.53-.2,.81,0,.95,.77,1.72,1.72,1.72h2.86c.95,0,1.72,.77,1.72,1.72v8.49c0,.31,.17,.6,.45,.75,.42,.23,.94,.08,1.17-.34l8.64-15.76c.14-.25,.21-.54,.21-.83,0-.95-.77-1.72-1.72-1.72Zm-3.11,7.26c0,.54-.44,.98-.98,.98h-.75v2.78h-1.83v-2.78h-.8c-.51,0-.93-.41-.93-.93h0v-3.87h.75v-2.57h1.18v2.57h1.43v-2.57h1.18v2.57h.75v3.82Z"/>
  <g id="Group_4" data-name="Group 4">
    <path id="Path_7" data-name="Path 7" class="cls-1" d="M22.85,26.78c-.34,0-.62,.28-.62,.62h0v.84c-.57-2.15-1.48-5.38-1.88-5.87-.61-.75-.61-1.84-7.84-1.84s-7.61,1.48-8.06,2.34c-.29,.57-1.14,3.47-1.67,5.39v-.86c0-.34-.28-.62-.62-.62-1.19,0-2.16,.97-2.16,2.16,0,.34,.28,.62,.62,.62h1.55c.09,0,.19-.02,.27-.07,0,.03-.01,.05-.02,.07-.18,.35-.28,.73-.28,1.13l-.22,3.87c-.3,.04-.53,.3-.53,.61v1.68c0,.34,.28,.62,.62,.62h.22v1.84c0,.34,.28,.62,.62,.62h3.69c.34,0,.62-.28,.62-.62v-1.84h10.98v1.84c0,.34,.28,.62,.62,.62h3.69c.34,0,.62-.28,.62-.62v-1.85c.33-.02,.59-.29,.59-.61v-1.68c0-.27-.18-.51-.45-.59l-.3-3.89c0-.42-.11-.84-.32-1.2,.08,.04,.18,.07,.27,.07h1.55c.34,0,.62-.28,.62-.62,0-1.19-.97-2.16-2.16-2.16m-15.98,7.66l-2.94,.05c-.49,0-.9-.39-.91-.88,0,0,0-.01,0-.02v-.27c0-.5,.4-.9,.9-.9,.05,0,.1,0,.14,.01l2.42,.39c.53,.08,.92,.54,.92,1.08,0,.29-.24,.53-.53,.54m-1.97-5.32c.01-1.35,.22-2.69,.62-3.98,.23-1.83,1.85-3.16,3.69-3.05h6.61c2.17,0,3.13,.94,3.69,3.05l.62,3.98c-5.05,.66-10.17,.66-15.23,0m16.98,4.65c0,.49-.4,.9-.9,.89,0,0,0,0-.01,0l-2.94-.05c-.29,0-.53-.24-.53-.54,0-.54,.39-.99,.92-1.08l2.42-.39c.49-.08,.96,.26,1.04,.75,0,.05,.01,.09,.01,.14v.27Z"/>
  </g>
</svg>