<svg *ngIf="data" version="1.1" id="Layer_1" xmlns="http://www.w3.org/2000/svg" xmlns:xlink="http://www.w3.org/1999/xlink" x="0px" y="0px"
	 viewBox="0 0 658.1 510.8" style="enable-background:new 0 0 658.1 510.8;" xml:space="preserve">
<style type="text/css">
	.st0{fill:#E6E6E6;}
	.st1{fill:#FFFFFF;}
	.st2{fill:#999999;}
	.st3{fill:#88CCEE;}
	.st4{display:none;}
	.st5{display:inline;fill:#848383;}
	.st6{fill:#E78833;}
	.st7{fill-rule:evenodd;clip-rule:evenodd;fill:#64C204;}
	.st8{font-family:'Roboto-Regular';}
	.st9{font-size:22.7511px;}
</style>
<g id="bldgs-streets-bgnd">
	<g id="streetsandbackground">
		<g id="bckgnd">
			<g id="map-bgnd">
				<polygon class="st0" points="640.4,503 15.5,507 15.5,36.5 636.7,36.5 642.3,345.4 				"/>
			</g>
		</g>
		<g id="Layer_4">
		</g>
		<g>
			<path class="st1" d="M539.9,94h33.5c5.5,0,10,4.5,10,10v23.2l-4.9,6.5h-8.7V110c0-2.2-1.8-4-4-4H551l-1.7-1.5V94.2h-2v11.2
				l4.8,4.2v26.1h27.4l5.4-7.1h11.4V154h2v-25.4h38.4l0-2h-13.6V51.4c0-2.2-1.8-4-4-4H507.7l-0.1-10.9h-2l0.2,25.7L539.9,94z
				 M567.9,133.8h-0.1h-13.6v-25l-0.8-0.7h12.5c1.1,0,2,0.9,2,2V133.8z M619.1,49.4c1.1,0,2,0.9,2,2l0.1,75.2h-35.8v-22.5
				c0-6.6-5.4-12-12-12h-32.7l-32.9-30.7l-0.1-12H619.1z"/>
			<path class="st1" d="M585.4,318.8v9.2c0,1.7,1.3,3,3,3h35.8v35.9h2v-14.8h13.9V350h-13.9l0-19.3l13.9-2.1l-0.3-2L624,329h-23.8
				v-10.7h-2V329h-9.8c-0.6,0-1-0.4-1-1v-9.2H585.4z"/>
			<polygon class="st1" points="415.1,62.3 415.1,60.3 379.1,61 378.5,35 376.5,35 377.1,63 			"/>
			<path class="st1" d="M654.4,27.2l-17,0.3c0,1.8,1.1,95.1,2.1,188h-1.4l-10.9,0.1v-51.5h9.5v-2H597l-0.5,37.9h-56.8l-0.7-77.6
				c0-2.8-2.3-5-5-5h-96.8L436.4,36l-4,0.1l0.8,81.3h-59V99.3h-2v18.1h-41.7l-0.5-44.5H363V53.6h-33.3l-0.2-16.9l-4,0l0.5,40.4
				h-66.6c-3.3,0-6,2.7-6,6V183h-76.9l-2.6-148l-7,0.1l2.5,137.2c-15.5-1.2-79.7,2.2-82.5,2.4c-0.5,0.1-0.9,0.5-0.9,1.1
				c0,0.5,0.5,0.9,1,0.9c0.8-0.1,67.5-3.7,82.4-2.4l0.8,45.8h-15.3V187c0-0.6-0.4-1-1-1c-0.6,0-1,0.4-1,1v33.6
				c-0.1,0.1-0.1,0.3-0.1,0.5s0,0.3,0.1,0.5v33.5l-5.8,0.2c-0.1,0-0.1,0-0.2,0c-0.1,0-0.2,0-0.3,0.1l-22,0.9l-9.2,17l-1.1,13.8
				l-3.8,22.9l6.5,31.5l5.2,6.8l-2.1,13.9l-1.6,22.9v6.7l1.7,11.9l21,11.5l13.6,2.4l18.9,0.9l0.2,12.7H39.6c-2.9,0-5.3,2.4-5.3,5.4
				v51.7c0,4.6,3.7,8.4,8.3,8.4h33.9c2.9,0,5.3-2.4,5.3-5.3v0.2c0-1.9,1.5-3.4,3.3-3.4H175l0.2,10.1l7-0.1L178.6,303h8.9v-33
				c0-0.6-0.4-1-1-1c-0.6,0-1,0.4-1,1v31h-6.9l-1.4-79.4c0.1-0.1,0.1-0.3,0.1-0.5c0-0.2-0.1-0.3-0.1-0.5l-0.6-33.6h76.8v45.7
				c-1.9-0.1-4-0.1-6.5,0.2c-0.1,0-2.5,0.2-5.9,0.4v-10.5c0-2.8-2.2-5-4.8-5H227c-2.7,0-4.8,2.2-4.8,5v29.5c0,2.8,2.2,5,4.8,5h9.2
				c2.7,0,4.8-2.2,4.8-5v-17c3.4-0.2,5.9-0.4,6.1-0.4c2.5-0.3,4.5-0.3,6.3-0.2c0,2.7,2.2,4.8,4.8,4.8h69.6v-4l-35.1,0V81.1H326
				l2.9,238.9l-11.3,5.3c-1.6,0.8-2.7,2.4-2.7,4.2l-0.7,39.3l-18.6,0.3v27l-10.8,0.2v35.9h13.8v-60.1l30.9-0.6l0.1,11.7l2.8,0v112.5
				h-75v0.7h-0.2v2.3h275.1v-1.5l0.2,0l-0.3-10h34.9v-2h-34.9l-1.8-63.4h34.9v-2h-34.7c0-0.5,0.1-1.2,0.1-2
				c0.2-3.2,0.6-9.2,1.2-20.1c1.3-22,5.1-38.9,6.3-43.8c2.8-0.4,4.9-2.8,4.9-5.7c0-3.2-2.6-5.8-5.8-5.8s-5.8,2.6-5.8,5.8
				c0,2.1,1.1,3.9,2.7,4.9c-0.8,3.2-2.5,10.6-4,20.8h-42.9c-0.6-2.6-2.9-4.5-5.6-4.5c-3.2,0-5.8,2.6-5.8,5.8s2.6,5.8,5.8,5.8
				c2.2,0,4.2-1.3,5.1-3.1h42.9c-0.8,5.9-1.5,12.5-1.9,19.6c-0.9,14.4-1.3,20.1-1.4,22.3h-81.1c-2.4,0-4.3,1.9-4.3,4.3v25.8h2v-25.8
				c0-1.3,1-2.3,2.3-2.3h81l-0.1,1.6h0.1l1.8,61.8h-1.9H458v2h68.2h2l0.3,8.5H453l-1.6-6.1c0-1.7-0.7-3.3-2-4.4l-3.8-3.4
				c-0.5-0.4-0.7-0.9-0.7-1.5l0.1-16.6c0-3.2-2.6-5.9-5.9-6H374l-0.7-38.2h64.8v-2h-64.9l-0.6-34.9l67.2-0.9l-0.6-60h45.2v-2h-45.2
				l-0.3-25.3h24v7.2v1.8v0.2h25.7v-2H465v-7.2h0.1v-2H439l-0.4-38.9h49.1v-2h-49.1l-0.3-29.5l98.6-1.2l0.3,52.8h-45.6v2h45.6
				l0.2,36.9h-5.1v2h5.1l0,5.5c-2.2,0.8-3.8,2.9-3.8,5.4c0,3.2,2.6,5.8,5.8,5.8c2.9,0,5.2-2.1,5.7-4.8h31.5v-2h-31.5
				c-0.4-2.1-1.8-3.7-3.7-4.4l-0.1-22.6h43.2v-2h-43.2l-0.2-36.1h41.7v-2h-41.7l-0.2-36.6l97.2-1.2h1.4c0.1,11,0.2,21.9,0.3,32.7
				h-9.4v-15.6c0-2.2-1.8-4-4-4h-13.6V220h-2v14.6h15.6c1.1,0,2,0.9,2,2v21.8H594v2h36.4v-6.2h9.5c0.1,13.8,0.3,27.3,0.4,40.2h-33.5
				c-1.7,0-3,1.3-3,3v7.3c0,2.8,2.3,5.1,5.1,5.1h24c0.4,0,0.9-0.1,1.2-0.3l6.3-2.9c0.4,42.8,0.7,76.9,0.7,89.3
				c0,4.3-0.1,10.3-0.3,17.5h-66.1v2h66.1c-0.6,21.7-1.8,53.8-3.3,87.5l17.1-0.6c2-45.9,3.6-88.8,3.6-106.6
				C658.1,351.4,654.4,30.4,654.4,27.2z M154,332.4c0,0.5-0.2,1-0.6,1.4c-0.4,0.4-0.9,0.6-1.4,0.6h-5.3c-1.1,0-2-0.9-2-2v-63.6
				c0-0.1,0-0.1,0-0.2h2.3h0.9h5.1L154,332.4z M147.9,266.6v-9.3l22.9-1l0.2,10.5c-0.2-0.1-0.4-0.2-0.6-0.2H147.9z M154.9,222.1
				h15.3l0.6,32.2l-15.9,0.7V222.1z M125.7,258.3l20.2-0.9v9.2h-17.1l-6.4-2.3L125.7,258.3z M154.9,415.6l-13.2-2.3l-19.8-10.8
				l-1.5-10.7v-6.6l1.6-22.7l2-13.4h47.3v-2h-47.7l-4.9-6.4l-6.4-30.6l3.8-22.6l1.1-13.5l4.3-7.9l6.9,2.5h14.3c0,0.1,0,0.1,0,0.2
				v63.6c0,2.2,1.8,4,4,4h5.3c1,0,2.1-0.4,2.9-1.1c0.7-0.8,1.1-1.8,1.1-2.9l-1-63.8h15.4c0.2,0,0.4-0.1,0.6-0.2l2.6,148.1
				L154.9,415.6z M85.1,486.2c-2.9,0-5.3,2.4-5.3,5.4v-0.3c0,1.9-1.5,3.4-3.3,3.4H42.6c-3.5,0-6.3-2.9-6.3-6.4v-51.7
				c0-1.9,1.5-3.4,3.3-3.4H174l0.9,53H85.1z M239,252.2c0,1.7-1.3,3-2.9,3h-9.2c-1.6,0-2.9-1.3-2.9-3V235c4.3,0.5,10.2,0.5,15,0.3
				V252.2z M239,233.3c-4.8,0.2-10.8,0.2-15-0.3v-10.3c0-1.6,1.3-3,2.9-3h9.2c1.6,0,2.9,1.3,2.9,3V233.3z M290.7,235.5h-32.4
				c-0.5,0-0.8-0.4-0.8-0.8V83.1c0-1.1,0.9-2,2-2h31.2V235.5z M295.5,429.3h-7.8v-30l7.8-0.1V429.3z M625.2,164.1v51.6l-26.9,0.3
				l0.7-51.9H625.2z M596.3,202v14l-56.4,0.7l-0.1-14.7H596.3z M433.3,121.4l0.4,40.7h-47.1v2h47.1l0.6,53.9H331.7l-0.5-44.7H354v-2
				h-22.9l-0.2-13.1h13.8v-2h-13.9l-0.4-34.8H433.3z M434.8,272.6h-17.7v2h17.7l0.2,22.8h-44.9v2h44.9l0.4,39.5l-58.9,0.6v-44.1h-2
				v44.1l-41.4,0.4l-1.4-118h102.6L434.8,272.6z M361,55.6v15.3h-31.1l-0.2-15.3H361z M317.1,368.8l0.7-39.2c0-0.6,0.4-1.2,1-1.5
				l10.2-4.8l0.5,45.2L317.1,368.8z M439,461.7c1.1,0,2,0.9,2,2l-0.1,16.6c0,1.7,0.7,3.4,2,4.5l3.8,3.4c0.4,0.4,0.7,0.9,0.7,1.5
				l1.6,6h-74.3l-0.6-34H439z M370.7,495.7h-35.2V383.1l33.2-0.4L370.7,495.7z M333.6,379.1l-0.4-37.1l102.3-1.1l0.4,36.9
				L333.6,379.1z M437.8,174.4h48v-2h-48l-0.2-18.9h21.3v-2h-21.3l-0.3-30.1h96.6c0.5,0,1,0.5,1,1l0.9,94.4l-97.5,1.2L437.8,174.4z
				 M633.3,307.7c-0.1,0.1-0.3,0.1-0.4,0.1h-24c-1.7,0-3.1-1.4-3.1-3.1v-7.3c0-0.6,0.4-1,1-1h33.5c0,2.7,0.1,5.4,0.1,8L633.3,307.7z
				"/>
			<rect x="45.7" y="36" class="st1" width="2" height="24.9"/>
			<path class="st1" d="M112.7,119.4h12.6V45.7h-12.6V31.6h-2v85.8h-0.4H99.8V90.5h-2v28.9h12.5H112.7z M112.7,47.7h10.6v69.7h-10.6
				V47.7z"/>
		</g>
	</g>
	<g id="bldg6">
		<path id="bldgshape6" [ngClass]="{'off': !data.Bldgs['6'], 'dr': data.Bldgs['6'] === 1}" class="st2" d="M399.6,433.2v15H410v-15H399.6z"/>
	</g>
	<g id="bldg7">
		<path id="bldgshape7" [ngClass]="{'off': !data.Bldgs['7'], 'dr': data.Bldgs['7'] === 1}" class="st2" d="M401.3,467.5v14.6h9.1v-14.6H401.3z"/>
	</g>
	<g id="bldg8">
		<path id="bldgshape8" [ngClass]="{'off': !data.Bldgs['8'], 'dr': data.Bldgs['8'] === 1}" class="st2" d="M410.6,433.8v14h8v-14H410.6z"/>
	</g>
	<g id="bldg9">
		<path id="bldgshape9" [ngClass]="{'off': !data.Bldgs['9'], 'dr': data.Bldgs['9'] === 1}" class="st2" d="M410.7,467.6v14.7h9v-14.7H410.7z"/>
	</g>
	<g id="bldg10">
		<path id="bldgshape10" [ngClass]="{'off': !data.Bldgs['10'], 'dr': data.Bldgs['10'] === 1}" class="st2" d="M428.1,467.6v14.1h10.7v-14.1H428.1z"/>
	</g>
	<g id="bldg11">
		<path id="bldgshape11" [ngClass]="{'off': !data.Bldgs['11'], 'dr': data.Bldgs['11'] === 1}" class="st2" d="M428.1,433.2v14.4h10.1v-14.4H428.1z"/>
	</g>
	<g id="bldg12">
		<path id="bldgshape12" [ngClass]="{'off': !data.Bldgs['12'], 'dr': data.Bldgs['12'] === 1}" class="st2" d="M346.4,485.2v8.6h15v-8.6H346.4z"/>
	</g>
	<g id="bldg13">
		<path id="bldgshape13" [ngClass]="{'off': !data.Bldgs['13'], 'dr': data.Bldgs['13'] === 1}" class="st2" d="M346.6,467.2v9H361v-9H346.6z"/>
	</g>
	<g id="bldg14">
		<path id="bldgshape14" [ngClass]="{'off': !data.Bldgs['14'], 'dr': data.Bldgs['14'] === 1}" class="st2" d="M381.3,467v15.2h10V467H381.3z"/>
	</g>
	<g id="bldg15">
		<path id="bldgshape15" [ngClass]="{'off': !data.Bldgs['15'], 'dr': data.Bldgs['15'] === 1}" class="st2" d="M381.4,433.6v15.7h9.7v-15.7H381.4z"/>
	</g>
	<g id="bldg16">
		<path id="bldgshape16" [ngClass]="{'off': !data.Bldgs['16'], 'dr': data.Bldgs['16'] === 1}" class="st2" d="M351.5,451.6v13.5h9.1v-13.5H351.5z"/>
	</g>
	<g id="bldg17">
		<path id="bldgshape17" [ngClass]="{'off': !data.Bldgs['17'], 'dr': data.Bldgs['17'] === 1}" class="st2" d="M351.8,436.6v13.3h8.7v-13.3H351.8z"/>
	</g>
	<g id="bldg18">
		<path id="bldgshape18" [ngClass]="{'off': !data.Bldgs['18'], 'dr': data.Bldgs['18'] === 1}" class="st2" d="M351.5,420.8v13.3h8.3v-13.3H351.5z"/>
	</g>
	<g id="bldg28">
		<path id="bldgshape28" [ngClass]="{'off': !data.Bldgs['28'], 'dr': data.Bldgs['28'] === 1}" class="st2" d="M509.9,382.2v1.6h-9.7v7.6h10v1.9h10.1l0.1-11L509.9,382.2L509.9,382.2z"/>
	</g>
	<g id="bldg29">
		<path id="bldgshape29" [ngClass]="{'off': !data.Bldgs['29'], 'dr': data.Bldgs['29'] === 1}" class="st2" d="M508.9,400.4l-0.2,10l6.2,0.2l0.2-4.8l4.6-0.2l-0.2-5.6L508.9,400.4z"/>
	</g>
	<g id="bldg30">
		<path id="bldgshape30" [ngClass]="{'off': !data.Bldgs['30'], 'dr': data.Bldgs['30'] === 1}" class="st2" d="M538.7,400.2l-0.4,16.4h7.5l-0.8-7.4h6.7v5.6h9l-0.4-15.3L538.7,400.2L538.7,400.2z"/>
	</g>
	<g id="bldg31">
		<path id="bldgshape31" [ngClass]="{'off': !data.Bldgs['31'], 'dr': data.Bldgs['31'] === 1}" class="st2" d="M539.5,383.7v10.2l22.2-1.4l-0.3-5.5l-8.9-0.8v-4.1L539.5,383.7z"/>
	</g>
	<g id="bldg32">
		<path id="bldgshape32" [ngClass]="{'off': !data.Bldgs['32'], 'dr': data.Bldgs['32'] === 1}" class="st2" d="M543.1,366.9v10.2h23.3v-10.2H543.1z"/>
	</g>
	<g id="bldg33">
		<path id="bldgshape33" [ngClass]="{'off': !data.Bldgs['33'], 'dr': data.Bldgs['33'] === 1}" class="st2" d="M501.4,336.7v13.4l25.2,0.1l0.2-13.3l-9.5-0.1v5.9l-7.9-0.1l-0.2-5.9H501.4z"/>
	</g>
	<g id="bldg34">
		<path id="bldgshape34" [ngClass]="{'off': !data.Bldgs['34'], 'dr': data.Bldgs['34'] === 1}" class="st2" d="M509.5,316.2l0.2,6.7h8.5l0.2,7.1h5.6l-0.2-14.4L509.5,316.2z"/>
	</g>
	<g id="bldg35">
		<path id="bldgshape35" [ngClass]="{'off': !data.Bldgs['35'], 'dr': data.Bldgs['35'] === 1}" class="st2" d="M549.7,336.8l0.2,11.1l14.4,0.2l-0.2-7l2.4,0.2l-0.1-4.4L549.7,336.8L549.7,336.8z"/>
	</g>
	<g id="bldg36">
		<path id="bldgshape36" [ngClass]="{'off': !data.Bldgs['36'], 'dr': data.Bldgs['36'] === 1}" class="st2" d="M553.3,327.9v8.1h18.9v-8.1H553.3z"/>
	</g>
	<g id="bldg37">
		<path id="bldgshape37" [ngClass]="{'off': !data.Bldgs['37'], 'dr': data.Bldgs['37'] === 1}" class="st2" d="M552.6,313.8v10h25.3v-10H552.6z"/>
	</g>
	<g id="bldg38">
		<path id="bldgshape38" [ngClass]="{'off': !data.Bldgs['38'], 'dr': data.Bldgs['38'] === 1}" class="st2" d="M550.9,298.2v12.5h32.9v-12.5H550.9L550.9,298.2z"/>
	</g>
	<g id="bldg39">
		<path id="bldgshape39" [ngClass]="{'off': !data.Bldgs['39'], 'dr': data.Bldgs['39'] === 1}" class="st2" d="M489.3,296.4l0.1,7l10.5-0.2l-0.1-5.1l-4.3-0.1v-1.5L489.3,296.4L489.3,296.4z"/>
	</g>
	<g id="bldg40">
		<path id="bldgshape40" [ngClass]="{'off': !data.Bldgs['40'], 'dr': data.Bldgs['40'] === 1}" class="st2" d="M500.9,293.5l0.1,9.7l28.4,0.2l-0.2-7.8l-20.2-0.1v-2.1L500.9,293.5L500.9,293.5z"/>
	</g>
	<g id="bldg41">
		<path id="bldgshape41" [ngClass]="{'off': !data.Bldgs['41'], 'dr': data.Bldgs['41'] === 1}" class="st2" d="M488.4,276.9V290h40.4v-13.1H488.4z"/>
	</g>
	<g id="bldg42">
		<path id="bldgshape42" [ngClass]="{'off': !data.Bldgs['42'], 'dr': data.Bldgs['42'] === 1}" class="st2" d="M495.5,258.8v7.9h25.9v-7.9H495.5z"/>
	</g>
	<g id="bldg43">
		<path id="bldgshape43" [ngClass]="{'off': !data.Bldgs['43'], 'dr': data.Bldgs['43'] === 1}" class="st2" d="M495.7,247.5v7.7h24.9v-7.7H495.7z"/>
	</g>
	<g id="bldg44">
		<path id="bldgshape44" [ngClass]="{'off': !data.Bldgs['44'], 'dr': data.Bldgs['44'] === 1}" class="st2" d="M507.5,304.1v9.4h24.4v-9.4H507.5z"/>
	</g>
	<g id="bldg45">
		<path id="bldgshape45" [ngClass]="{'off': !data.Bldgs['45'], 'dr': data.Bldgs['45'] === 1}" class="st2" d="M490.4,305.8l-0.1,7.9h8.5l0.1-4.4h4.5l0.1-4.1L490.4,305.8L490.4,305.8z"/>
	</g>
	<g id="bldg46">
		<path id="bldgshape46" [ngClass]="{'off': !data.Bldgs['46'], 'dr': data.Bldgs['46'] === 1}" class="st2" d="M551.8,268.9v6.9l4.3-0.2l0.2,4.7l10.6-0.1l-0.1-11.1L551.8,268.9z"/>
	</g>
	<g id="bldg47">
		<path id="bldgshape47" [ngClass]="{'off': !data.Bldgs['47'], 'dr': data.Bldgs['47'] === 1}" class="st2" d="M552.6,259.4v4.7h2.8l0.1,3.6h9.2v-8.2L552.6,259.4z"/>
	</g>
	<g id="bldg48">
		<path id="bldgshape48" [ngClass]="{'off': !data.Bldgs['48'], 'dr': data.Bldgs['48'] === 1}" class="st2" d="M517.9,237.3v7.7h13.3v-7.7H517.9z"/>
	</g>
	<g id="bldg49">
		<path id="bldgshape49" [ngClass]="{'off': !data.Bldgs['49'], 'dr': data.Bldgs['49'] === 1}" class="st2" d="M502.9,233.6v10h11.3v-10H502.9z"/>
	</g>
	<g id="bldg50">
		<path id="bldgshape50" [ngClass]="{'off': !data.Bldgs['50'], 'dr': data.Bldgs['50'] === 1}" class="st2" d="M493.2,225.7v14.5h7.2v-14.5H493.2z"/>
	</g>
	<g id="bldg51">
		<path id="bldgshape51" [ngClass]="{'off': !data.Bldgs['51'], 'dr': data.Bldgs['51'] === 1}" class="st2" d="M483.2,226.3v12.8h8.1v-12.8H483.2L483.2,226.3z"/>
	</g>
	<g id="bldg52">
		<path id="bldgshape52" [ngClass]="{'off': !data.Bldgs['52'], 'dr': data.Bldgs['52'] === 1}" class="st2" d="M525.3,224.3v10.9h7.7v-10.9H525.3z"/>
	</g>
	<g id="bldg53">
		<path id="bldgshape53" [ngClass]="{'off': !data.Bldgs['53'], 'dr': data.Bldgs['53'] === 1}" class="st2" d="M566.7,225.1v21.7h12.9v-21.7H566.7z"/>
	</g>
	<g id="bldg54">
		<path id="bldgshape54" [ngClass]="{'off': !data.Bldgs['54'], 'dr': data.Bldgs['54'] === 1}" class="st2" d="M550.6,225.9v20.2h12.6v-20.2H550.6z"/>
	</g>
	<g id="bldg55">
		<path id="bldgshape55" [ngClass]="{'off': !data.Bldgs['55'], 'dr': data.Bldgs['55'] === 1}" class="st2" d="M448.1,296.2l-0.1,4.6h1.7l0.4,9l11.1,0.5l-0.2-14.8L448.1,296.2L448.1,296.2z"/>
	</g>
	<g id="bldg56">
		<path id="bldgshape56" [ngClass]="{'off': !data.Bldgs['56'], 'dr': data.Bldgs['56'] === 1}" class="st2" d="M461.2,287.7l3.2-0.2l-0.2-5.1h-13.7l0.2,9.6l10.6,0.2L461.2,287.7L461.2,287.7z"/>
	</g>
	<g id="bldg57">
		<path id="bldgshape57" [ngClass]="{'off': !data.Bldgs['57'], 'dr': data.Bldgs['57'] === 1}" class="st2" d="M450.1,274.1l1.1,6.4l10.4-0.6l-0.4-9.9l-5.1,0.1l-0.2,3.7L450.1,274.1z"/>
	</g>
	<g id="bldg58">
		<path id="bldgshape58" [ngClass]="{'off': !data.Bldgs['58'], 'dr': data.Bldgs['58'] === 1}" class="st2" d="M446.8,253.9v12.6h39.7v-12.6H446.8z"/>
	</g>
	<g id="bldg59">
		<path id="bldgshape59" [ngClass]="{'off': !data.Bldgs['59'], 'dr': data.Bldgs['59'] === 1}" class="st2" d="M466.7,299.9h20.7v-7.7h-20.7V299.9z"/>
	</g>
	<g id="bldg60">
		<path id="bldgshape60" [ngClass]="{'off': !data.Bldgs['60'], 'dr': data.Bldgs['60'] === 1}" class="st2" d="M465.7,306.3v7.5H487v-7.5H465.7z"/>
	</g>
	<g id="bldg61">
		<path id="bldgshape61" [ngClass]="{'off': !data.Bldgs['61'], 'dr': data.Bldgs['61'] === 1}" class="st2" d="M446.8,354l-0.2,8.4h19.1v-10.6l-14.9-0.5l0.2,2.9L446.8,354L446.8,354z"/>
	</g>
	<g id="bldg62">
		<path id="bldgshape62" [ngClass]="{'off': !data.Bldgs['62'], 'dr': data.Bldgs['62'] === 1}" class="st2" d="M452.2,340.7L452,338l-5.1,0.2l0.2,10l19.5,0.1v-8.9l-11.1-0.2l-0.1,1.7L452.2,340.7
			L452.2,340.7z"/>
	</g>
	<g id="bldg63">
		<path id="bldgshape63" [ngClass]="{'off': !data.Bldgs['63'], 'dr': data.Bldgs['63'] === 1}" class="st2" d="M448.3,323.8v10.8h34.1v-10.8H448.3z"/>
	</g>
	<g id="bldg64">
		<path id="bldgshape64" [ngClass]="{'off': !data.Bldgs['64'], 'dr': data.Bldgs['64'] === 1}" class="st2" d="M451.4,366v11.1h18V366H451.4z"/>
	</g>
	<g id="bldg65">
		<path id="bldgshape65" [ngClass]="{'off': !data.Bldgs['65'], 'dr': data.Bldgs['65'] === 1}" class="st2" d="M470.7,350.7V363h11v-21.9l-7.1,0.2l0.4,8.8L470.7,350.7L470.7,350.7z"/>
	</g>
	<g id="bldg66">
		<path id="bldgshape66" [ngClass]="{'off': !data.Bldgs['66'], 'dr': data.Bldgs['66'] === 1}" class="st2" d="M487.1,342.1l0.4,20.6l10.2,0.4v-13.5h-4.6l-0.2-7.3L487.1,342.1L487.1,342.1z"/>
	</g>
	<g id="bldg67">
		<path id="bldgshape67" [ngClass]="{'acoff': !data.Bldgs['67'], 'acon': data.Bldgs['67'] === 1}" class="st3" d="M444.8,227.3v13.2h6.7v-13.2H444.8z"/>
	</g>
	<g id="bldg68">
		<path id="bldgshape68" [ngClass]="{'acoff': !data.Bldgs['68'], 'acon': data.Bldgs['68'] === 1}" class="st3" d="M452.5,229.9v13.7h9.3v-13.7H452.5z"/>
	</g>
	<g id="bldg69">
		<path id="bldgshape69" [ngClass]="{'off': !data.Bldgs['69'], 'dr': data.Bldgs['69'] === 1}" class="st2" d="M463.5,230.7v13.1h9.1v-13.1H463.5z"/>
	</g>
	<g id="bldg70">
		<path id="bldgshape70" [ngClass]="{'off': !data.Bldgs['70'], 'dr': data.Bldgs['70'] === 1}" class="st2" d="M473.8,231.5v9.8h8.7v-9.8H473.8z"/>
	</g>
	<g id="bldg71">
		<path id="bldgshape71" [ngClass]="{'off': !data.Bldgs['71'], 'dr': data.Bldgs['71'] === 1}" class="st2" d="M427.1,388.9v14.6h10.5v-14.6H427.1z"/>
	</g>
	<g id="bldg72">
		<path id="bldgshape72" [ngClass]="{'off': !data.Bldgs['72'], 'dr': data.Bldgs['72'] === 1}" class="st2" d="M438.3,395.1l10.3,16.7l9.2-5.6l-10.7-16.7L438.3,395.1z"/>
	</g>
	<g id="bldg73">
		<path id="bldgshape73" [ngClass]="{'off': !data.Bldgs['73'], 'dr': data.Bldgs['73'] === 1}" class="st2" d="M449.4,388l10.1,16.4l9.8-6.1L459,382L449.4,388L449.4,388z"/>
	</g>
	<g id="bldg74">
		<path id="bldgshape74" [ngClass]="{'off': !data.Bldgs['74'], 'dr': data.Bldgs['74'] === 1}" class="st2" d="M470.4,387.2l0.8,12.7h3.5v8.6l7.2-0.2l0.2-21.1H470.4L470.4,387.2z"/>
	</g>
	<g id="bldg75">
		<path id="bldgshape75" [ngClass]="{'off': !data.Bldgs['75'], 'dr': data.Bldgs['75'] === 1}" class="st2" d="M487,386.8l0.2,21.8h7v-9.4h4.4v-11.9L487,386.8L487,386.8z"/>
	</g>
	<g id="bldg85">
		<path id="bldgshape85" [ngClass]="{'off': !data.Bldgs['85'], 'dr': data.Bldgs['85'] === 1}" class="st2" d="M500,430.8v45h18.7v-45H500z"/>
	</g>
	<g id="bldg86">
		<path id="bldgshape86" [ngClass]="{'off': !data.Bldgs['86'], 'dr': data.Bldgs['86'] === 1}" class="st2" d="M477.2,431.7v7.5h20.9v-7.5H477.2z"/>
	</g>
	<g id="bldg87">
		<path id="bldgshape87" [ngClass]="{'off': !data.Bldgs['87'], 'dr': data.Bldgs['87'] === 1}" class="st2" d="M477.6,468.4v8.5h20.1v-8.5H477.6z"/>
	</g>
	<g id="bldg88">
		<path id="bldgshape88" [ngClass]="{'off': !data.Bldgs['88'], 'dr': data.Bldgs['88'] === 1}" class="st2" d="M481.2,443v7.1h13.5V443H481.2z"/>
	</g>
	<g id="bldg94" class="st4">
		<path id="bldgshape94" [ngClass]="{'off': !data.Bldgs['94'], 'dr': data.Bldgs['94'] === 1}" class="st5" d="M492.7,586.4l0.1,11h26.4l-0.1-8.6l-16.6-0.1l-0.2-2.5L492.7,586.4z"/>
	</g>
	<g id="bldg111">
		<path id="bldgshape111" [ngClass]="{'off': !data.Bldgs['111'], 'dr': data.Bldgs['111'] === 1}" class="st2" d="M478.8,131.3v12l8.6,0.1l0.2-17.3h-5.2l0.1,5L478.8,131.3z"/>
	</g>
	<g id="bldg112">
		<path id="bldgshape112" [ngClass]="{'off': !data.Bldgs['112'], 'dr': data.Bldgs['112'] === 1}" class="st2" d="M489,129.2v15.9h8.9v-15.9H489z"/>
	</g>
	<g id="bldg113">
		<path id="bldgshape113" [ngClass]="{'off': !data.Bldgs['113'], 'dr': data.Bldgs['113'] === 1}" class="st2" d="M494.8,146.5v9h27v-9C521.8,146.5,494.8,146.5,494.8,146.5z"/>
	</g>
	<g id="bldg114">
		<path id="bldgshape114" [ngClass]="{'off': !data.Bldgs['114'], 'dr': data.Bldgs['114'] === 1}" class="st2" d="M503.7,129.3v15.6h9.1v-15.6H503.7z"/>
	</g>
	<g id="bldg115">
		<path id="bldgshape115" [ngClass]="{'off': !data.Bldgs['115'], 'dr': data.Bldgs['115'] === 1}" class="st2" d="M521.4,123.8l0.2,17.9l5.2,0.1v-6.4h2.2v-7.1l2.6-0.1l-0.2-4.2L521.4,123.8L521.4,123.8z"
			/>
	</g>
	<g id="bldg116">
		<path id="bldgshape116" [ngClass]="{'off': !data.Bldgs['116'], 'dr': data.Bldgs['116'] === 1}" class="st2" d="M443.3,158.2v10.4h8.4v-10.4C451.8,158.2,443.3,158.2,443.3,158.2z"/>
	</g>
	<g id="bldg117">
		<path id="bldgshape117" [ngClass]="{'off': !data.Bldgs['117'], 'dr': data.Bldgs['117'] === 1}" class="st2" d="M451.4,136.2l0.1,7.4l12.5-0.1l-0.3-16.9h-7.1l0.2,9.6H451.4z"/>
	</g>
	<g id="bldg118">
		<path id="bldgshape118" [ngClass]="{'off': !data.Bldgs['118'], 'dr': data.Bldgs['118'] === 1}" class="st2" d="M452.3,158.4v10h6.9v-10C459.2,158.4,452.3,158.4,452.3,158.4z"/>
	</g>
	<g id="bldg119">
		<path id="bldgshape119" [ngClass]="{'off': !data.Bldgs['119'], 'dr': data.Bldgs['119'] === 1}" class="st2" d="M461.9,158.1v10.3h8.1v-10.3H461.9z"/>
	</g>
	<g id="bldg120">
		<path id="bldgshape120" [ngClass]="{'off': !data.Bldgs['120'], 'dr': data.Bldgs['120'] === 1}" class="st2" d="M468.2,124.8v11.3h8.2v-11.3H468.2z"/>
	</g>
	<g id="bldg121">
		<path id="bldgshape121" [ngClass]="{'acoff': !data.Bldgs['121'], 'acon': data.Bldgs['121'] === 1}" class="st3" d="M463.9,146.7v7.3h18.6v-7.3H463.9z"/>
	</g>
	<g id="bldg122">
		<path id="bldgshape122" [ngClass]="{'off': !data.Bldgs['122'], 'dr': data.Bldgs['122'] === 1}" class="st2" d="M445.2,200.3v9.8h6.8v-9.8H445.2z"/>
	</g>
	<g id="bldg123">
		<path id="bldgshape123" [ngClass]="{'off': !data.Bldgs['123'], 'dr': data.Bldgs['123'] === 1}" class="st2" d="M458.8,192.7l0.2,14.8h10.2v-7.3l-3.7,0.2l0.2-7.8L458.8,192.7L458.8,192.7z"/>
	</g>
	<g id="bldg124">
		<path id="bldgshape124" [ngClass]="{'off': !data.Bldgs['124'], 'dr': data.Bldgs['124'] === 1}" class="st2" d="M473.3,195v13.8h10.8V195H473.3z"/>
	</g>
	<g id="bldg125">
		<path id="bldgshape125" [ngClass]="{'off': !data.Bldgs['125'], 'dr': data.Bldgs['125'] === 1}" class="st2" d="M484.9,191.8v16.5H497v-16.5H484.9z"/>
	</g>
	<g id="bldg126">
		<path id="bldgshape126" [ngClass]="{'off': !data.Bldgs['126'], 'dr': data.Bldgs['126'] === 1}" class="st2" d="M501.7,199.1v10.8h10.2v-10.8H501.7z"/>
	</g>
	<g id="bldg127">
		<path id="bldgshape127" [ngClass]="{'off': !data.Bldgs['127'], 'dr': data.Bldgs['127'] === 1}" class="st2" d="M516,202.2v6.1l16.4-0.2v-15.8h-12.2l0.2,9.6L516,202.2L516,202.2z"/>
	</g>
	<g id="bldg128">
		<path id="bldgshape128" [ngClass]="{'off': !data.Bldgs['128'], 'dr': data.Bldgs['128'] === 1}" class="st2" d="M446.2,176.8v12.1h35.4v-12.1H446.2z"/>
	</g>
	<g id="bldg129">
		<path id="bldgshape129" [ngClass]="{'off': !data.Bldgs['129'], 'dr': data.Bldgs['129'] === 1}" class="st2" d="M529.6,171.2h-36.7v6.4h36.7V171.2z"/>
	</g>
	<g id="bldg130">
		<path id="bldgshape130" [ngClass]="{'off': !data.Bldgs['130'], 'dr': data.Bldgs['130'] === 1}" class="st2" d="M489.1,180.3v7.3h35v-7.3H489.1z"/>
	</g>
	<g id="bldg131">
		<path id="bldgshape131" [ngClass]="{'off': !data.Bldgs['131'], 'dr': data.Bldgs['131'] === 1}" class="st2" d="M383.8,192.3v17.3h9.1v-17.3H383.8z"/>
	</g>
	<g id="bldg132">
		<path id="bldgshape132" [ngClass]="{'off': !data.Bldgs['132'], 'dr': data.Bldgs['132'] === 1}" class="st2" d="M386.4,165.2v12.5h38.5v-12.5C424.8,165.2,386.4,165.2,386.4,165.2z"/>
	</g>
	<g id="bldg133">
		<path id="bldgshape133" [ngClass]="{'off': !data.Bldgs['133'], 'dr': data.Bldgs['133'] === 1}" class="st2" d="M387.9,147.7v9.5h22.6v-9.5H387.9L387.9,147.7z"/>
	</g>
	<g id="bldg134">
		<path id="bldgshape134" [ngClass]="{'off': !data.Bldgs['134'], 'dr': data.Bldgs['134'] === 1}" class="st2" d="M425.4,180.9h-25.6v8.6h25.6V180.9z"/>
	</g>
	<g id="bldg135">
		<path id="bldgshape135" [ngClass]="{'off': !data.Bldgs['135'], 'dr': data.Bldgs['135'] === 1}" class="st2" d="M425.8,202.5v-8.8h-25.7v8.8H425.8z"/>
	</g>
	<g id="bldg136">
		<path id="bldgshape136" [ngClass]="{'off': !data.Bldgs['136'], 'dr': data.Bldgs['136'] === 1}" class="st2" d="M416.1,204.3v6.4h10.2v-6.4H416.1z"/>
	</g>
	<g id="bldg137">
		<path id="bldgshape137" [ngClass]="{'off': !data.Bldgs['137'], 'dr': data.Bldgs['137'] === 1}" class="st2" d="M337.5,184.5l0.1,6.9l2.3-0.2v8.3h8.3v-15.2L337.5,184.5L337.5,184.5z"/>
	</g>
	<g id="bldg138">
		<path id="bldgshape138" [ngClass]="{'off': !data.Bldgs['138'], 'dr': data.Bldgs['138'] === 1}" class="st2" d="M349.7,182.1v16h9.2v-16H349.7z"/>
	</g>
	<g id="bldg139">
		<path id="bldgshape139" [ngClass]="{'off': !data.Bldgs['139'], 'dr': data.Bldgs['139'] === 1}" class="st2" d="M360.6,183v15.4h10.6V183H360.6z"/>
	</g>
	<g id="bldg140">
		<path id="bldgshape140" [ngClass]="{'off': !data.Bldgs['140'], 'dr': data.Bldgs['140'] === 1}" class="st2" d="M375.1,184.5v10.2h7.5v-10.2H375.1z"/>
	</g>
	<g id="bldg141">
		<path id="bldgshape141" [ngClass]="{'off': !data.Bldgs['141'], 'dr': data.Bldgs['141'] === 1}" class="st2" d="M353.9,160.4v8.1H381v-8.1H353.9z"/>
	</g>
	<g id="bldg142">
		<path id="bldgshape142" [ngClass]="{'off': !data.Bldgs['142'], 'dr': data.Bldgs['142'] === 1}" class="st2" d="M362,170.7v9.1h19.5v-9.1H362L362,170.7z"/>
	</g>
	<g id="bldg143">
		<path id="bldgshape143" [ngClass]="{'off': !data.Bldgs['143'], 'dr': data.Bldgs['143'] === 1}" class="st2" d="M337.2,100.9v8.5h8.7v-8.5C345.9,100.9,337.2,100.9,337.2,100.9z"/>
	</g>
	<g id="bldg144">
		<path id="bldgshape144" [ngClass]="{'off': !data.Bldgs['144'], 'dr': data.Bldgs['144'] === 1}" class="st2" d="M351.8,108.9h8.2V94.2h-8.2V108.9z"/>
	</g>
	<g id="bldg145">
		<path id="bldgshape145" [ngClass]="{'off': !data.Bldgs['145'], 'dr': data.Bldgs['145'] === 1}" class="st2" d="M360.2,99.3v9.1h7.1v-9.1C367.3,99.3,360.2,99.3,360.2,99.3z"/>
	</g>
	<g id="bldg146">
		<path id="bldgshape146" [ngClass]="{'off': !data.Bldgs['146'], 'dr': data.Bldgs['146'] === 1}" class="st2" d="M371.8,77v18.4h9.9V77H371.8z"/>
	</g>
	<g id="bldg147">
		<path id="bldgshape147" [ngClass]="{'off': !data.Bldgs['147'], 'dr': data.Bldgs['147'] === 1}" class="st2" d="M383.1,77.7v16.8h9.3V77.7H383.1z"/>
	</g>
	<g id="bldg148">
		<path id="bldgshape148" [ngClass]="{'off': !data.Bldgs['148'], 'dr': data.Bldgs['148'] === 1}" class="st2" d="M395.4,77.3V97h7.9V77.3H395.4z"/>
	</g>
	<g id="bldg149">
		<path id="bldgshape149" [ngClass]="{'off': !data.Bldgs['149'], 'dr': data.Bldgs['149'] === 1}" class="st2" d="M406.3,97.6h8.8V76.7h-8.8V97.6z"/>
	</g>
	<g id="bldg150">
		<path id="bldgshape150" [ngClass]="{'off': !data.Bldgs['150'], 'dr': data.Bldgs['150'] === 1}" class="st2" d="M417.6,88.1v21.1h10.1V88.1H417.6z"/>
	</g>
	<g id="bldg151">
		<path id="bldgshape151" [ngClass]="{'off': !data.Bldgs['151'], 'dr': data.Bldgs['151'] === 1}" class="st2" d="M336.6,87v13h9.1V87H336.6z"/>
	</g>
	<g id="bldg152">
		<path id="bldgshape152" [ngClass]="{'acoff': !data.Bldgs['152'], 'acon': data.Bldgs['152'] === 1}" class="st3" d="M303.5,123.5l-0.3,8.5l14.6-0.3l0.2-11h-5.2l0.2,2.7L303.5,123.5L303.5,123.5z"/>
	</g>
	<g id="bldg153">
		<path id="bldgshape153" [ngClass]="{'off': !data.Bldgs['153'], 'dr': data.Bldgs['153'] === 1}" class="st2" d="M303.8,135.7v5.2l7.7-0.1v2.9l6.4-0.2l-0.2-7.9L303.8,135.7L303.8,135.7z"/>
	</g>
	<g id="bldg154">
		<path id="bldgshape154" [ngClass]="{'off': !data.Bldgs['154'], 'dr': data.Bldgs['154'] === 1}" class="st2" d="M336.6,130.1l0.5,14.9l11.6,0.1v-17.5l-8.7,0.1v2.5L336.6,130.1L336.6,130.1z"/>
	</g>
	<g id="bldg155">
		<path id="bldgshape155" [ngClass]="{'off': !data.Bldgs['155'], 'dr': data.Bldgs['155'] === 1}" class="st2" d="M354,128v9.3h14.2V128H354z"/>
	</g>
	<g id="bldg156">
		<path id="bldgshape156" [ngClass]="{'off': !data.Bldgs['156'], 'dr': data.Bldgs['156'] === 1}" class="st2" d="M368.9,127.9v11h13.3v-11H368.9z"/>
	</g>
	<g id="bldg157">
		<path id="bldgshape157" [ngClass]="{'off': !data.Bldgs['157'], 'dr': data.Bldgs['157'] === 1}" class="st2" d="M396.3,128l0.2,14.8h8l0.2-6.7l20.3-0.2l0.1-8L396.3,128L396.3,128z"/>
	</g>
	<g id="bldg158">
		<path id="bldgshape158" [ngClass]="{'off': !data.Bldgs['158'], 'dr': data.Bldgs['158'] === 1}" class="st2" d="M353.5,147.1v7.7h29v-7.7H353.5z"/>
	</g>
	<g id="bldg159">
		<path id="bldgshape159" [ngClass]="{'off': !data.Bldgs['159'], 'dr': data.Bldgs['159'] === 1}" class="st2" d="M251.4,44.5v23.6h9.9V44.5C261.2,44.5,251.4,44.5,251.4,44.5z"/>
	</g>
	<g id="bldg160">
		<path id="bldgshape160" [ngClass]="{'off': !data.Bldgs['160'], 'dr': data.Bldgs['160'] === 1}" class="st2" d="M262.7,99.5h4.7l0.1-2.3l12.1-0.4l0.4-7l-17.5,0.1C262.5,90,262.7,99.5,262.7,99.5z"/>
	</g>
	<g id="bldg161">
		<path id="bldgshape161" [ngClass]="{'off': !data.Bldgs['161'], 'dr': data.Bldgs['161'] === 1}" class="st2" d="M263.8,117.1h14.8l0.1-9.3h-9.8l-0.2-2.3l-4.8,0.2L263.8,117.1z"/>
	</g>
	<g id="bldg162">
		<path id="bldgshape162" [ngClass]="{'off': !data.Bldgs['162'], 'dr': data.Bldgs['162'] === 1}" class="st2" d="M264.2,119.5l0.1,9.9l6.3-0.1l0.2-2.9h7.6l0.3-7L264.2,119.5L264.2,119.5z"/>
	</g>
	<g id="bldg163">
		<path id="bldgshape163" [ngClass]="{'off': !data.Bldgs['163'], 'dr': data.Bldgs['163'] === 1}" class="st2" d="M265.4,44.3v24h12.5v-24C277.8,44.3,265.4,44.3,265.4,44.3z"/>
	</g>
	<g id="bldg164">
		<path id="bldgshape164" [ngClass]="{'off': !data.Bldgs['164'], 'dr': data.Bldgs['164'] === 1}" class="st2" d="M279.8,44.9v23h9.2v-23C289.1,44.9,279.8,44.9,279.8,44.9z"/>
	</g>
	<g id="bldg165">
		<path id="bldgshape165" [ngClass]="{'off': !data.Bldgs['165'], 'dr': data.Bldgs['165'] === 1}" class="st2" d="M300.6,219.8v8.8l19-0.2l-0.2-12.6h-4l0.2,2.8l-10.9,0.1l0.3-2.9l-4.4,0.1V219.8
			L300.6,219.8z"/>
	</g>
	<g id="bldg166">
		<path id="bldgshape166" [ngClass]="{'off': !data.Bldgs['166'], 'dr': data.Bldgs['166'] === 1}" class="st2" d="M303.8,164.8h13.5l0.2-12.5h-6v2.5h-8L303.8,164.8L303.8,164.8z"/>
	</g>
	<g id="bldg167">
		<path id="bldgshape167" [ngClass]="{'off': !data.Bldgs['167'], 'dr': data.Bldgs['167'] === 1}" class="st2" d="M302.6,167.6l-0.3,6.8h9.2l0.2,2.7h7.3v-9.6L302.6,167.6L302.6,167.6z"/>
	</g>
	<g id="bldg168">
		<path id="bldgshape168" [ngClass]="{'off': !data.Bldgs['168'], 'dr': data.Bldgs['168'] === 1}" class="st2" d="M304,198.2h13.9l-0.2-14.6l-4.3-0.1v3.1l-9.4,0.1V198.2z"/>
	</g>
	<g id="bldg169">
		<path id="bldgshape169" [ngClass]="{'off': !data.Bldgs['169'], 'dr': data.Bldgs['169'] === 1}" class="st2" d="M303.7,199.7l0.6,8.8l8.2-0.1l-0.2,2.9l5.8-2.1v-9.6L303.7,199.7z"/>
	</g>
	<g id="bldg170">
		<path id="bldgshape170" [ngClass]="{'acoff': !data.Bldgs['170'], 'acon': data.Bldgs['170'] === 1}" class="st3" d="M303.2,103.7v7.4l7.9-0.1l-0.2,2.7l7.1-0.4v-9.7L303.2,103.7L303.2,103.7z"/>
	</g>
	<g id="bldg171">
		<path id="bldgshape171" [ngClass]="{'off': !data.Bldgs['171'], 'dr': data.Bldgs['171'] === 1}" class="st2" d="M295.4,45.1v22.5h10.2V45.1C305.7,45.1,295.4,45.1,295.4,45.1z"/>
	</g>
	<g id="bldg172">
		<path id="bldgshape172" [ngClass]="{'off': !data.Bldgs['172'], 'dr': data.Bldgs['172'] === 1}" class="st2" d="M302.3,99.3h14.8V87.4h-5l-0.4,3.1h-9.1C302.6,90.5,302.3,99.3,302.3,99.3z"/>
	</g>
	<g id="bldg173">
		<path id="bldgshape173" [ngClass]="{'off': !data.Bldgs['173'], 'dr': data.Bldgs['173'] === 1}" class="st2" d="M308.2,44v23.8h8.8V44H308.2z"/>
	</g>
	<g id="bldg174">
		<path id="bldgshape174" [ngClass]="{'off': !data.Bldgs['174'], 'dr': data.Bldgs['174'] === 1}" class="st2" d="M265.1,215.9l0.1,11.2l5.2,0.1l0.2-3.7l8.4,0.1l0.2-7.8L265.1,215.9L265.1,215.9z"/>
	</g>
	<g id="bldg175">
		<path id="bldgshape175" [ngClass]="{'off': !data.Bldgs['175'], 'dr': data.Bldgs['175'] === 1}" class="st2" d="M264.4,212.4h14.8v-9.7h-14.8V212.4z"/>
	</g>
	<g id="bldg176">
		<path id="bldgshape176" [ngClass]="{'off': !data.Bldgs['176'], 'dr': data.Bldgs['176'] === 1}" class="st2" d="M265,184.3l-0.4,11.3l6,0.2l0.2-3.8l8.1-0.1v-7.6L265,184.3L265,184.3z"/>
	</g>
	<g id="bldg177">
		<path id="bldgshape177" [ngClass]="{'off': !data.Bldgs['177'], 'dr': data.Bldgs['177'] === 1}" class="st2" d="M264.6,169.1l0.4,13.1l13.5-0.1l-0.1-10.4l-8.9,0.3v-2.9L264.6,169.1L264.6,169.1z"/>
	</g>
	<g id="bldg178">
		<path id="bldgshape178" [ngClass]="{'off': !data.Bldgs['178'], 'dr': data.Bldgs['178'] === 1}" class="st2" d="M264.3,152.4l0.2,10.9h4.8l0.4-3.1l8.7-0.2l-0.2-7.7L264.3,152.4L264.3,152.4z"/>
	</g>
	<g id="bldg179">
		<path id="bldgshape179" [ngClass]="{'off': !data.Bldgs['179'], 'dr': data.Bldgs['179'] === 1}" class="st2" d="M264.4,150.6l13.9-0.1l-0.2-10.3l-9.2,0.1l-0.2-3.1l-4.6,0.2
			C264,137.5,264.4,150.6,264.4,150.6z"/>
	</g>
	<g id="bldg180">
		<path id="bldgshape180" [ngClass]="{'acoff': !data.Bldgs['180'], 'acon': data.Bldgs['180'] === 1}" class="st3" d="M181.9,212.3v24.2h12.4v-24.2H181.9L181.9,212.3z"/>
	</g>
	<g id="bldg181">
		<path id="bldgshape181" [ngClass]="{'acoff': !data.Bldgs['181'], 'acon': data.Bldgs['181'] === 1}" class="st3" d="M197.7,208.9l-0.2,12.9l16.7-5.1l-0.2-12.5L197.7,208.9L197.7,208.9z"/>
	</g>
	<g id="bldg182">
		<path id="bldgshape182" [ngClass]="{'acoff': !data.Bldgs['182'], 'acon': data.Bldgs['182'] === 1}" class="st3" d="M197.9,227.9v10.9l22.5,8.3V235L197.9,227.9z"/>
	</g>
	<g id="bldg183">
		<path id="bldgshape183" [ngClass]="{'off': !data.Bldgs['183'], 'dr': data.Bldgs['183'] === 1}" class="st2" d="M29.9,122.6l0.4,8.7l-9.2,0.2l1.5,23.8l57.8,0.8l-0.4-4.9l9.8,0.2v-20l-29.5,0.4l-0.2-9.8
			C60.1,122.1,29.9,122.6,29.9,122.6z"/>
	</g>
	<g id="bldg184">
		<path id="bldgshape184" [ngClass]="{'off': !data.Bldgs['184'], 'dr': data.Bldgs['184'] === 1}" class="st2" d="M58.6,54.1l0.3,32.1h6.3v42h8.4l-0.9-85.8l-6.9,0.3v10.2L58.6,54.1z"/>
	</g>
	<g id="bldg185">
		<path id="bldgshape185" [ngClass]="{'off': !data.Bldgs['185'], 'dr': data.Bldgs['185'] === 1}" class="st2" d="M81.5,45.4v12.3h6.6l0.8,35.7h18.6L107,43.9L81.5,45.4z"/>
	</g>
	<g id="bldg186">
		<path id="bldgshape186" [ngClass]="{'off': !data.Bldgs['186'], 'dr': data.Bldgs['186'] === 1}" class="st2" d="M126.7,42.7l0.8,76.5l-15.4,0.4l-0.4,9.2l27.2-0.9l-0.3-29.1l-0.1-5.8l-0.3-24.8l-0.3-3.2
			V42.6L126.7,42.7L126.7,42.7z"/>
	</g>
	<g id="bldg187">
		<path id="bldgshape187" [ngClass]="{'off': !data.Bldgs['187'], 'dr': data.Bldgs['187'] === 1}" class="st2" d="M30,266.7v47.7h68.8v-47.7C98.8,266.7,30,266.7,30,266.7z"/>
	</g>
	<g id="bldg188">
		<path id="bldgshape188" [ngClass]="{'acoff': !data.Bldgs['188'], 'acon': data.Bldgs['188'] === 1}" class="st3" d="M127.8,191.4l0.6,25.3h15.2v-26.1L127.8,191.4L127.8,191.4z"/>
	</g>
	<g id="bldg189">
		<path id="bldgshape189" [ngClass]="{'off': !data.Bldgs['189'], 'dr': data.Bldgs['189'] === 1}" class="st2" d="M124.3,287.4v39.2h13.1v-39.2H124.3z"/>
	</g>
	<g id="bldg190">
		<path id="bldgshape190" [ngClass]="{'off': !data.Bldgs['190'], 'dr': data.Bldgs['190'] === 1}" class="st2" d="M33.5,192.8l-1.2,64.4l58.8-0.2l5.4-36.5l31.4-3.7l-0.6-25.3L33.5,192.8L33.5,192.8z"/>
	</g>
	<g id="bldg191">
		<path id="bldgshape191" [ngClass]="{'off': !data.Bldgs['191'], 'dr': data.Bldgs['191'] === 1}" class="st2" d="M145.6,97V63.8h-6.3v33.1L145.6,97L145.6,97z"/>
	</g>
	<g id="bldg227">
		<path id="bldgshape227" [ngClass]="{'acoff': !data.Bldgs['227'], 'acon': data.Bldgs['227'] === 1}" class="st3" d="M306.3,394.9v26.9h10.8l-0.1-9.6l-0.2-7.6l0,0l7.7-0.1l0.1-9.7L306.3,394.9z"/>
	</g>
	<g id="bldg228">
		<path id="bldgshape228" [ngClass]="{'off': !data.Bldgs['228'], 'dr': data.Bldgs['228'] === 1}" class="st2" d="M345.7,390.4v8.3h14.9v-8.3H345.7z"/>
	</g>
	<g id="bldg229">
		<path id="bldgshape229" [ngClass]="{'off': !data.Bldgs['229'], 'dr': data.Bldgs['229'] === 1}" class="st2" d="M351.7,399.5v20h8.9v-20H351.7z"/>
	</g>
	<g id="bldg230">
		<path id="bldgshape230" [ngClass]="{'off': !data.Bldgs['230'], 'dr': data.Bldgs['230'] === 1}" class="st2" d="M380.4,389.2v13.9h10.5v-13.9H380.4z"/>
	</g>
	<g id="bldg231">
		<path id="bldgshape231" [ngClass]="{'off': !data.Bldgs['231'], 'dr': data.Bldgs['231'] === 1}" class="st2" d="M398.1,388.7v14.7h11.8v-14.7H398.1L398.1,388.7z"/>
	</g>
	<g id="bldg232">
		<path id="bldgshape232" [ngClass]="{'off': !data.Bldgs['232'], 'dr': data.Bldgs['232'] === 1}" class="st2" d="M410.1,389.2v13.9h8.7v-13.9H410.1z"/>
	</g>
	<g id="bldg233">
		<path id="bldgshape233" [ngClass]="{'off': !data.Bldgs['233'], 'dr': data.Bldgs['233'] === 1}" class="st2" d="M374.1,354.9v14.9h11.1v-14.9H374.1z"/>
	</g>
	<g id="bldg234">
		<path id="bldgshape234" [ngClass]="{'off': !data.Bldgs['234'], 'dr': data.Bldgs['234'] === 1}" class="st2" d="M385.6,354.2v15.2h8.3v-15.2H385.6z"/>
	</g>
	<g id="bldg235">
		<path id="bldgshape235" [ngClass]="{'off': !data.Bldgs['235'], 'dr': data.Bldgs['235'] === 1}" class="st2" d="M403.6,354.7v13.9h10v-13.9H403.6L403.6,354.7z"/>
	</g>
	<g id="bldg236">
		<path id="bldgshape236" [ngClass]="{'off': !data.Bldgs['236'], 'dr': data.Bldgs['236'] === 1}" class="st2" d="M416.9,354.9V369h9.8v-14.1H416.9z"/>
	</g>
	<g id="bldg237">
		<path id="bldgshape237" [ngClass]="{'off': !data.Bldgs['237'], 'dr': data.Bldgs['237'] === 1}" class="st2" d="M425.2,315.8h-24.1v13.3h24.1V315.8z"/>
	</g>
	<g id="bldg238">
		<path id="bldgshape238" [ngClass]="{'off': !data.Bldgs['238'], 'dr': data.Bldgs['238'] === 1}" class="st2" d="M373,227.2v15.1h6.3v-15.1H373z"/>
	</g>
	<g id="bldg239">
		<path id="bldgshape239" [ngClass]="{'off': !data.Bldgs['239'], 'dr': data.Bldgs['239'] === 1}" class="st2" d="M385.1,271.1l0.2,5.3l2.9-0.1v3l24.5,0.6l-0.1-8.9L385.1,271.1L385.1,271.1z"/>
	</g>
	<g id="bldg240">
		<path id="bldgshape240" [ngClass]="{'off': !data.Bldgs['240'], 'dr': data.Bldgs['240'] === 1}" class="st2" d="M390.3,234l0.1,10.5l10.1-0.1v-15.7l-4.8,0.1l-0.1,5.2H390.3z"/>
	</g>
	<g id="bldg241">
		<path id="bldgshape241" [ngClass]="{'off': !data.Bldgs['241'], 'dr': data.Bldgs['241'] === 1}" class="st2" d="M421.3,282.2h-9.7v8.1h9.7V282.2z"/>
	</g>
	<g id="bldg242">
		<path id="bldgshape242" [ngClass]="{'off': !data.Bldgs['242'], 'dr': data.Bldgs['242'] === 1}" class="st2" d="M411.4,258.3l0.1,10.4l10.9,0.1l0.3-2.7h2.7l-0.1-7.6L411.4,258.3L411.4,258.3z"/>
	</g>
	<g id="bldg243">
		<path id="bldgshape243" [ngClass]="{'off': !data.Bldgs['243'], 'dr': data.Bldgs['243'] === 1}" class="st2" d="M417.4,228.1l0.3,24.3l7.1,0.1l0.1-14.1l3.7-0.3l-0.1-10.1L417.4,228.1L417.4,228.1z"/>
	</g>
	<g id="bldg244">
		<path id="bldgshape244" [ngClass]="{'off': !data.Bldgs['244'], 'dr': data.Bldgs['244'] === 1}" class="st2" d="M135.9,359.7l0.8,34.6l13.9,16.1l12.4,0.8l-0.8-53.8L135.9,359.7L135.9,359.7z"/>
	</g>
	<g id="bldg245">
		<path id="bldgshape245" [ngClass]="{'acoff': !data.Bldgs['245'], 'acon': data.Bldgs['245'] === 1}" class="st3" d="M223.6,371.8v11.3H238v-11.3H223.6z"/>
	</g>
	<g id="bldg246">
		<path id="bldgshape246" [ngClass]="{'acoff': !data.Bldgs['246'], 'acon': data.Bldgs['246'] === 1}" class="st3" d="M239.6,371.4l-0.4,11.3l33.5-0.4l-0.4-11.6L239.6,371.4L239.6,371.4z"/>
	</g>
	<g id="bldg247">
		<path id="bldgshape247" [ngClass]="{'acoff': !data.Bldgs['247'], 'acon': data.Bldgs['247'] === 1}" class="st3" d="M278.9,368.4v25.4h10.8v-25.4H278.9z"/>
	</g>
	<g id="bldg248">
		<path id="bldgshape248" [ngClass]="{'acoff': !data.Bldgs['248'], 'acon': data.Bldgs['248'] === 1}" class="st3" d="M195.1,345.4v15.9h13.3v-15.9H195.1z"/>
	</g>
	<g id="bldg249">
		<path id="bldgshape249" [ngClass]="{'off': !data.Bldgs['249'], 'dr': data.Bldgs['249'] === 1}" class="st2" d="M340.6,293.4v8.6h27.8v-8.6H340.6L340.6,293.4z"/>
	</g>
	<g id="bldg250">
		<path id="bldgshape250" [ngClass]="{'off': !data.Bldgs['250'], 'dr': data.Bldgs['250'] === 1}" class="st2" d="M340.7,354.9v15.2H351v-15.2H340.7z"/>
	</g>
	<g id="bldg251">
		<path id="bldgshape251" [ngClass]="{'off': !data.Bldgs['251'], 'dr': data.Bldgs['251'] === 1}" class="st2" d="M341.2,305.1v8.4h27.2v-8.4H341.2z"/>
	</g>
	<g id="bldg252">
		<path id="bldgshape252" [ngClass]="{'off': !data.Bldgs['252'], 'dr': data.Bldgs['252'] === 1}" class="st2" d="M341.2,315.9v9.5h27.2v-9.5H341.2z"/>
	</g>
	<g id="bldg253">
		<path id="bldgshape253" [ngClass]="{'off': !data.Bldgs['253'], 'dr': data.Bldgs['253'] === 1}" class="st2" d="M355,354.9v14.9h9.7v-14.9H355z"/>
	</g>
	<g id="bldg254">
		<path id="bldgshape254" [ngClass]="{'acoff': !data.Bldgs['254'], 'acon': data.Bldgs['254'] === 1}" class="st3" d="M231,346.6l-0.4,16.9h16.2l6.6-5h39.8l-1.2-35.4l17.8-0.8v-15l-56.4,0.8l0.8,38.1
			L231,346.6L231,346.6z"/>
	</g>
	<g id="bldg255">
		<path id="bldgshape255" [ngClass]="{'off': !data.Bldgs['255'], 'dr': data.Bldgs['255'] === 1}" class="st2" d="M341.3,327.6v7.7H369v-7.1L341.3,327.6z"/>
	</g>
	<g id="bldg256">
		<path id="bldgshape256" [ngClass]="{'off': !data.Bldgs['256'], 'dr': data.Bldgs['256'] === 1}" class="st2" d="M350.5,244.1v-15.8h-9.9v15.8H350.5z"/>
	</g>
	<g id="bldg257">
		<path id="bldgshape257" [ngClass]="{'off': !data.Bldgs['257'], 'dr': data.Bldgs['257'] === 1}" class="st2" d="M345.9,284.2v7.7h12.4v-7.7H345.9z"/>
	</g>
	<g id="bldg258">
		<path id="bldgshape258" [ngClass]="{'off': !data.Bldgs['258'], 'dr': data.Bldgs['258'] === 1}" class="st2" d="M347.6,270v6.2l5.4,0.2l0.2,3.8h8.9l-0.2-10.2L347.6,270L347.6,270z"/>
	</g>
	<g id="bldg259">
		<path id="bldgshape259" [ngClass]="{'off': !data.Bldgs['259'], 'dr': data.Bldgs['259'] === 1}" class="st2" d="M353.8,227.3v17.1h10v-17.1H353.8z"/>
	</g>
	<g id="bldg260">
		<path id="bldgshape260" [ngClass]="{'off': !data.Bldgs['260'], 'dr': data.Bldgs['260'] === 1}" class="st2" d="M339.6,251.3l0.4,16.3h9.9l-0.4-12.1h-3.3l-0.8-4.4L339.6,251.3z"/>
	</g>
	<g id="bldg261">
		<path id="bldgshape261" [ngClass]="{'off': !data.Bldgs['261'], 'dr': data.Bldgs['261'] === 1}" class="st2" d="M354.9,251.1l0.2,3.8h-2.3l0.4,11.5h10.2v-11.7h-3.1l-1-3.5L354.9,251.1L354.9,251.1z"/>
	</g>
	<g id="bldg262">
		<path id="bldgshape262" [ngClass]="{'off': !data.Bldgs['262'], 'dr': data.Bldgs['262'] === 1}" class="st2" d="M264,247.4h-11v23.8h11V247.4z"/>
	</g>
	<g id="bldg263">
		<path id="bldgshape263" [ngClass]="{'off': !data.Bldgs['263'], 'dr': data.Bldgs['263'] === 1}" class="st2" d="M280.3,248.4h-11.5v21.2h11.5V248.4z"/>
	</g>
	<g id="bldg264">
		<path id="bldgshape264" [ngClass]="{'off': !data.Bldgs['264'], 'dr': data.Bldgs['264'] === 1}" class="st2" d="M282.7,270.7h9.7v-23.4h-9.7V270.7L282.7,270.7z"/>
	</g>
	<g id="bldg265">
		<path id="bldgshape265" [ngClass]="{'off': !data.Bldgs['265'], 'dr': data.Bldgs['265'] === 1}" class="st2" d="M309,270.9v-23.4h-11.1v23.4H309L309,270.9z"/>
	</g>
	<g id="bldg266">
		<path id="bldgshape266" [ngClass]="{'off': !data.Bldgs['266'], 'dr': data.Bldgs['266'] === 1}" class="st2" d="M310.4,246.3v24.9h10.2v-24.9H310.4z"/>
	</g>
	<g id="bldg267">
		<path id="bldgshape267" [ngClass]="{'acoff': !data.Bldgs['267'], 'acon': data.Bldgs['267'] === 1}" class="st3" d="M234.9,263.9v12h9.4v-12L234.9,263.9L234.9,263.9z"/>
	</g>
	<g id="bldg281">
		<path id="bldgshape281" [ngClass]="{'off': !data.Bldgs['281'], 'dr': data.Bldgs['281'] === 1}" class="st3" d="M237.9,482.2l0.6,8.1l27.4,0.3v-13.1h-15.7l0.3,4.4L237.9,482.2L237.9,482.2z"/>
	</g>
	<g id="bldg305">
		<path id="bldgshape305" [ngClass]="{'acoff': !data.Bldgs['305'], 'acon': data.Bldgs['305'] === 1}" class="st3" d="M38.7,435.5v48.3h131.1v-48.3H38.7z"/>
	</g>
	<g id="bldg306">
		<path id="bldgshape306" [ngClass]="{'off': !data.Bldgs['306'], 'dr': data.Bldgs['306'] === 1}" class="st2" d="M395,282.8v7.8h9.4v-7.8H395z"/>
	</g>
	<g id="bldg307">
		<path id="bldgshape307" [ngClass]="{'off': !data.Bldgs['307'], 'dr': data.Bldgs['307'] === 1}" class="st2" d="M427.8,302.6h-38v10h38V302.6z"/>
	</g>
	<g id="bldg308">
		<path id="bldgshape308" [ngClass]="{'off': !data.Bldgs['308'], 'dr': data.Bldgs['308'] === 1}" class="st2" d="M585.2,227.5v6.6h12.1v-6.6H585.2z"/>
	</g>
	<g id="bldg309">
		<path id="bldgshape309" [ngClass]="{'off': !data.Bldgs['309'], 'dr': data.Bldgs['309'] === 1}" class="st2" d="M521.1,159.1h-26v8h26V159.1z"/>
	</g>
	<g id="bldg310">
		<path id="bldgshape310" [ngClass]="{'off': !data.Bldgs['310'], 'dr': data.Bldgs['310'] === 1}" class="st2" d="M551.1,249.1v8.3l26.3-0.1v-6l-12.6-0.1l-2.5-2.3L551.1,249.1L551.1,249.1z"/>
	</g>
	<g id="bldg311">
		<path id="bldgshape311" [ngClass]="{'off': !data.Bldgs['311'], 'dr': data.Bldgs['311'] === 1}" class="st2" d="M502.7,358v10.1h21.4V358H502.7z"/>
	</g>
	<g id="bldg312">
		<path id="bldgshape312" [ngClass]="{'off': !data.Bldgs['312'], 'dr': data.Bldgs['312'] === 1}" class="st2" d="M473.1,431.9h-18.9v45.2h18.9V431.9z"/>
	</g>
	<g id="bldg313">
		<path id="bldgshape313" [ngClass]="{'off': !data.Bldgs['313'], 'dr': data.Bldgs['313'] === 1}" class="st2" d="M534.7,432.8v44.9h20.1v-44.9H534.7z"/>
	</g>
	<g id="bldg314">
		<path id="bldgshape314" [ngClass]="{'off': !data.Bldgs['314'], 'dr': data.Bldgs['314'] === 1}" class="st2" d="M351.5,81v6.8h8V81C359.5,81,351.5,81,351.5,81z"/>
	</g>
	<g id="bldg315">
		<path id="bldgshape315" [ngClass]="{'acoff': !data.Bldgs['315'], 'acon': data.Bldgs['315'] === 1}" class="st3" d="M439.2,136.9l4.8-0.2l0.2-4.6h6.6l0.2-5.2h-11.7C439.2,126.9,439.2,136.9,439.2,136.9z"/>
	</g>
	<g id="bldg316">
		<path id="bldgshape316" [ngClass]="{'off': !data.Bldgs['316'], 'dr': data.Bldgs['316'] === 1}" class="st2" d="M37.8,348.1V394H93v-45.9C93.1,348.1,37.8,348.1,37.8,348.1z"/>
	</g>
</g>
<g id="ev">
	<path id="_x3C_ev34_x3E_" class="st6" [ngClass]="{'evoff': data.drOn === 1 || !data.EVs['34'], 'evon': data.EVs['34'] > 0 && data.drOn !== 1}" d="M512.1,329.2v-4.6c0-0.6,0.5-1.1,1.1-1.1h1.7c0.6,0,1.1,0.5,1.1,1.1v4.6
		c0,0.6-0.5,1.1-1.1,1.1h-1.7C512.6,330.3,512.1,329.9,512.1,329.2z"/>
	<path id="_x3C_ev35_x3E_" class="st6" [ngClass]="{'evoff': data.drOn === 1 || !data.EVs['35'], 'evon': data.EVs['35'] > 0 && data.drOn !== 1}" d="M547.6,344H543c-0.6,0-1.1-0.5-1.1-1.1v-1.7c0-0.6,0.5-1.1,1.1-1.1h4.6
		c0.6,0,1.1,0.5,1.1,1.1v1.7C548.7,343.6,548.2,344,547.6,344z"/>
	<path id="_x3C_ev88-3_x3E_" class="st6" [ngClass]="{'evoff': data.drOn === 1 || !data.EVs['88-3'], 'evon': data.EVs['88-3'] > 0 && data.drOn !== 1}" d="M491.4,457.6V453c0-0.6,0.5-1.1,1.1-1.1h1.7c0.6,0,1.1,0.5,1.1,1.1v4.6
		c0,0.6-0.5,1.1-1.1,1.1h-1.7C491.9,458.7,491.4,458.2,491.4,457.6z"/>
	<path id="_x3C_ev88-2" class="st6" [ngClass]="{'evoff': data.drOn === 1 || !data.EVs['88-2'], 'evon': data.EVs['88-2'] > 0 && data.drOn !== 1}" d="M486.5,457.6V453c0-0.6,0.5-1.1,1.1-1.1h1.7c0.6,0,1.1,0.5,1.1,1.1v4.6
		c0,0.6-0.5,1.1-1.1,1.1h-1.7C486.9,458.7,486.5,458.2,486.5,457.6z"/>
	<path id="_x3C_ev88-1_x3E_" class="st6" [ngClass]="{'evoff': data.drOn === 1 || !data.EVs['88-1'], 'evon': data.EVs['88-1'] > 0 && data.drOn !== 1}" d="M481.5,457.6V453c0-0.6,0.5-1.1,1.1-1.1h1.7c0.6,0,1.1,0.5,1.1,1.1v4.6
		c0,0.6-0.5,1.1-1.1,1.1h-1.7C482,458.7,481.5,458.2,481.5,457.6z"/>
	<path id="_x3C_ev188-1_x3E_" class="st6" [ngClass]="{'evoff': data.drOn === 1 || !data.EVs['188-1'], 'evon': data.EVs['188-1'] > 0 && data.drOn !== 1}" d="M103.8,234.6h-4.6c-0.6,0-1.1-0.5-1.1-1.1v-1.7c0-0.6,0.5-1.1,1.1-1.1h4.6
		c0.6,0,1.1,0.5,1.1,1.1v1.7C104.9,234.1,104.4,234.6,103.8,234.6z"/>
	<path id="_x3C_ev188-2_x3E_" class="st6" [ngClass]="{'evoff': data.drOn === 1 || !data.EVs['188-2'], 'evon': data.EVs['188-2'] > 0 && data.drOn !== 1}" d="M103.8,239.6h-4.6c-0.6,0-1.1-0.5-1.1-1.1v-1.7c0-0.6,0.5-1.1,1.1-1.1h4.6
		c0.6,0,1.1,0.5,1.1,1.1v1.7C104.9,239.1,104.4,239.6,103.8,239.6z"/>
	<path id="_x3C_ev188-3_x3E_" class="st6" [ngClass]="{'evoff': data.drOn === 1 || !data.EVs['188-3'], 'evon': data.EVs['188-3'] > 0 && data.drOn !== 1}" d="M103.8,244.6h-4.6c-0.6,0-1.1-0.5-1.1-1.1v-1.7c0-0.6,0.5-1.1,1.1-1.1h4.6
		c0.6,0,1.1,0.5,1.1,1.1v1.7C104.9,244.1,104.4,244.6,103.8,244.6z"/>
	<path id="_x3C_ev188-4_x3E_" class="st6" [ngClass]="{'evoff': data.drOn === 1 || !data.EVs['188-4'], 'evon': data.EVs['188-4'] > 0 && data.drOn !== 1}" d="M103.8,249.6h-4.6c-0.6,0-1.1-0.5-1.1-1.1v-1.7c0-0.6,0.5-1.1,1.1-1.1h4.6
		c0.6,0,1.1,0.5,1.1,1.1v1.7C104.9,249.1,104.4,249.6,103.8,249.6z"/>
	<path id="_x3C_ev188-5_x3E_" class="st6" [ngClass]="{'evoff': data.drOn === 1 || !data.EVs['188-5'], 'evon': data.EVs['188-5'] > 0 && data.drOn !== 1}" d="M103.8,254.6h-4.6c-0.6,0-1.1-0.5-1.1-1.1v-1.7c0-0.6,0.5-1.1,1.1-1.1h4.6
		c0.6,0,1.1,0.5,1.1,1.1v1.7C104.9,254.2,104.4,254.6,103.8,254.6z"/>
	<path id="_x3C_ev188-6_x3E_" class="st6" [ngClass]="{'evoff': data.drOn === 1 || !data.EVs['188-6'], 'evon': data.EVs['188-6'] > 0 && data.drOn !== 1}" d="M118.1,229.4h-4.6c-0.6,0-1.1-0.5-1.1-1.1v-1.7c0-0.6,0.5-1.1,1.1-1.1h4.6
		c0.6,0,1.1,0.5,1.1,1.1v1.7C119.2,228.9,118.7,229.4,118.1,229.4z"/>
	<path id="_x3C_ev188-7_x3E_" class="st6" [ngClass]="{'evoff': data.drOn === 1 || !data.EVs['188-7'], 'evon': data.EVs['188-7'] > 0 && data.drOn !== 1}" d="M118.1,234.4h-4.6c-0.6,0-1.1-0.5-1.1-1.1v-1.7c0-0.6,0.5-1.1,1.1-1.1h4.6
		c0.6,0,1.1,0.5,1.1,1.1v1.7C119.2,233.9,118.7,234.4,118.1,234.4z"/>
	<path id="_x3C_ev188-8_x3E_" class="st6" [ngClass]="{'evoff': data.drOn === 1 || !data.EVs['188-8'], 'evon': data.EVs['188-8'] > 0 && data.drOn !== 1}" d="M118.1,239.4h-4.6c-0.6,0-1.1-0.5-1.1-1.1v-1.7c0-0.6,0.5-1.1,1.1-1.1h4.6
		c0.6,0,1.1,0.5,1.1,1.1v1.7C119.2,239,118.7,239.4,118.1,239.4z"/>
	<path id="_x3C_ev188-9_x3E_" class="st6" [ngClass]="{'evoff': data.drOn === 1 || !data.EVs['188-9'], 'evon': data.EVs['188-9'] > 0 && data.drOn !== 1}" d="M118.1,244.5h-4.6c-0.6,0-1.1-0.5-1.1-1.1v-1.7c0-0.6,0.5-1.1,1.1-1.1h4.6
		c0.6,0,1.1,0.5,1.1,1.1v1.7C119.2,244,118.7,244.5,118.1,244.5z"/>
	<path id="_x3C_ev188-10_x3E_" class="st6" [ngClass]="{'evoff': data.drOn === 1 || !data.EVs['188-10'], 'evon': data.EVs['188-10'] > 0 && data.drOn !== 1}" d="M118.1,249.5h-4.6c-0.6,0-1.1-0.5-1.1-1.1v-1.7c0-0.6,0.5-1.1,1.1-1.1h4.6
		c0.6,0,1.1,0.5,1.1,1.1v1.7C119.2,249,118.7,249.5,118.1,249.5z"/>
	<path id="_x3C_ev188-11_x3E_" class="st6" [ngClass]="{'evoff': data.drOn === 1 || !data.EVs['188-11'], 'evon': data.EVs['188-11'] > 0 && data.drOn !== 1}" d="M118.1,254.6h-4.6c-0.6,0-1.1-0.5-1.1-1.1v-1.7c0-0.6,0.5-1.1,1.1-1.1h4.6
		c0.6,0,1.1,0.5,1.1,1.1v1.7C119.2,254.2,118.7,254.6,118.1,254.6z"/>
	<path id="_x3C_ev188-12_x3E_" class="st6" [ngClass]="{'evoff': data.drOn === 1 || !data.EVs['188-12'], 'evon': data.EVs['188-12'] > 0 && data.drOn !== 1}" d="M126.8,229.3h-4.6c-0.6,0-1.1-0.5-1.1-1.1v-1.7c0-0.6,0.5-1.1,1.1-1.1h4.6
		c0.6,0,1.1,0.5,1.1,1.1v1.7C127.9,228.8,127.4,229.3,126.8,229.3z"/>
	<path id="_x3C_ev188-13_x3E_" class="st6" [ngClass]="{'evoff': data.drOn === 1 || !data.EVs['188-13'], 'evon': data.EVs['188-13'] > 0 && data.drOn !== 1}" d="M126.8,234.3h-4.6c-0.6,0-1.1-0.5-1.1-1.1v-1.7c0-0.6,0.5-1.1,1.1-1.1h4.6
		c0.6,0,1.1,0.5,1.1,1.1v1.7C127.9,233.8,127.4,234.3,126.8,234.3z"/>
	<path id="_x3C_ev188-14_x3E_" class="st6" [ngClass]="{'evoff': data.drOn === 1 || !data.EVs['188-14'], 'evon': data.EVs['188-14'] > 0 && data.drOn !== 1}" d="M126.8,239.3h-4.6c-0.6,0-1.1-0.5-1.1-1.1v-1.7c0-0.6,0.5-1.1,1.1-1.1h4.6
		c0.6,0,1.1,0.5,1.1,1.1v1.7C127.9,238.8,127.4,239.3,126.8,239.3z"/>
	<path id="_x3C_ev188-15_x3E_" class="st6" [ngClass]="{'evoff': data.drOn === 1 || !data.EVs['188-15'], 'evon': data.EVs['188-15'] > 0 && data.drOn !== 1}" d="M126.8,244.3h-4.6
		c-0.6,0-1.1-0.5-1.1-1.1v-1.7c0-0.6,0.5-1.1,1.1-1.1h4.6c0.6,0,1.1,0.5,1.1,1.1v1.7C127.9,243.9,127.4,244.3,126.8,244.3z"/>
	<path id="_x3C_ev188-16_x3E_" class="st6" [ngClass]="{'evoff': data.drOn === 1 || !data.EVs['188-16'], 'evon': data.EVs['188-16'] > 0 && data.drOn !== 1}" d="M126.8,249.4h-4.6c-0.6,0-1.1-0.5-1.1-1.1v-1.7c0-0.6,0.5-1.1,1.1-1.1h4.6
		c0.6,0,1.1,0.5,1.1,1.1v1.7C127.9,248.9,127.4,249.4,126.8,249.4z"/>
	<path id="_x3C_ev188-17_x3E_" class="st6" [ngClass]="{'evoff': data.drOn === 1 || !data.EVs['188-17'], 'evon': data.EVs['188-17'] > 0 && data.drOn !== 1}" d="M126.8,254.5h-4.6c-0.6,0-1.1-0.5-1.1-1.1v-1.7c0-0.6,0.5-1.1,1.1-1.1h4.6
		c0.6,0,1.1,0.5,1.1,1.1v1.7C127.9,254,127.4,254.5,126.8,254.5z"/>
	<path id="_x3C_ev188-18_x3E_" class="st6" [ngClass]="{'evoff': data.drOn === 1 || !data.EVs['188-18'], 'evon': data.EVs['188-18'] > 0 && data.drOn !== 1}" d="M140.7,229.2h-4.6c-0.6,0-1.1-0.5-1.1-1.1v-1.7c0-0.6,0.5-1.1,1.1-1.1h4.6
		c0.6,0,1.1,0.5,1.1,1.1v1.7C141.8,228.7,141.3,229.2,140.7,229.2z"/>
	<path id="_x3C_ev188-19_x3E_" class="st6" [ngClass]="{'evoff': data.drOn === 1 || !data.EVs['188-19'], 'evon': data.EVs['188-19'] > 0 && data.drOn !== 1}" d="M140.5,234.3h-4.6c-0.6,0-1.1-0.5-1.1-1.1v-1.7c0-0.6,0.5-1.1,1.1-1.1h4.6
		c0.6,0,1.1,0.5,1.1,1.1v1.7C141.6,233.8,141.1,234.3,140.5,234.3z"/>
	<path id="_x3C_ev188-20_x3E_" class="st6" [ngClass]="{'evoff': data.drOn === 1 || !data.EVs['188-20'], 'evon': data.EVs['188-20'] > 0 && data.drOn !== 1}" d="M140.5,239.3h-4.6c-0.6,0-1.1-0.5-1.1-1.1v-1.7c0-0.6,0.5-1.1,1.1-1.1h4.6
		c0.6,0,1.1,0.5,1.1,1.1v1.7C141.6,238.8,141.1,239.3,140.5,239.3z"/>
	<path id="_x3C_ev188-21_x3E_" class="st6" [ngClass]="{'evoff': data.drOn === 1 || !data.EVs['188-21'], 'evon': data.EVs['188-21'] > 0 && data.drOn !== 1}" d="M140.5,244.3h-4.6c-0.6,0-1.1-0.5-1.1-1.1v-1.7c0-0.6,0.5-1.1,1.1-1.1h4.6
		c0.6,0,1.1,0.5,1.1,1.1v1.7C141.6,243.8,141.1,244.3,140.5,244.3z"/>
	<path id="_x3C_ev188-22_x3E_" class="st6" [ngClass]="{'evoff': data.drOn === 1 || !data.EVs['188-22'], 'evon': data.EVs['188-22'] > 0 && data.drOn !== 1}" d="M140.5,249.3h-4.6c-0.6,0-1.1-0.5-1.1-1.1v-1.7c0-0.6,0.5-1.1,1.1-1.1h4.6
		c0.6,0,1.1,0.5,1.1,1.1v1.7C141.6,248.8,141.1,249.3,140.5,249.3z"/>
	<path id="_x3C_ev188-23_x3E_" class="st6" [ngClass]="{'evoff': data.drOn === 1 || !data.EVs['188-23'], 'evon': data.EVs['188-23'] > 0 && data.drOn !== 1}" d="M140.5,254.6h-4.6
		c-0.6,0-1.1-0.5-1.1-1.1v-1.7c0-0.6,0.5-1.1,1.1-1.1h4.6c0.6,0,1.1,0.5,1.1,1.1v1.7C141.6,254.1,141.1,254.6,140.5,254.6z"/>
	<path id="_x3C_ev188-24_x3E_" class="st6" [ngClass]="{'evoff': data.drOn === 1 || !data.EVs['188-24'], 'evon': data.EVs['188-24'] > 0 && data.drOn !== 1}" d="M149.3,229.1h-4.6c-0.6,0-1.1-0.5-1.1-1.1v-1.7c0-0.6,0.5-1.1,1.1-1.1h4.6
		c0.6,0,1.1,0.5,1.1,1.1v1.7C150.4,228.6,149.9,229.1,149.3,229.1z"/>
	<path id="_x3C_ev188-25_x3E_" class="st6" [ngClass]="{'evoff': data.drOn === 1 || !data.EVs['188-25'], 'evon': data.EVs['188-25'] > 0 && data.drOn !== 1}" d="M149.2,234.1h-4.6c-0.6,0-1.1-0.5-1.1-1.1v-1.7c0-0.6,0.5-1.1,1.1-1.1h4.6
		c0.6,0,1.1,0.5,1.1,1.1v1.7C150.3,233.7,149.8,234.1,149.2,234.1z"/>
	<path id="_x3C_ev188-26_x3E_" class="st6" [ngClass]="{'evoff': data.drOn === 1 || !data.EVs['188-26'], 'evon': data.EVs['188-26'] > 0 && data.drOn !== 1}" d="M149.2,239.2h-4.6c-0.6,0-1.1-0.5-1.1-1.1v-1.7c0-0.6,0.5-1.1,1.1-1.1h4.6
		c0.6,0,1.1,0.5,1.1,1.1v1.7C150.3,238.7,149.8,239.2,149.2,239.2z"/>
	<path id="_x3C_ev188-27_x3E_" class="st6" [ngClass]="{'evoff': data.drOn === 1 || !data.EVs['188-27'], 'evon': data.EVs['188-27'] > 0 && data.drOn !== 1}" d="M149.2,244.2h-4.6c-0.6,0-1.1-0.5-1.1-1.1v-1.7c0-0.6,0.5-1.1,1.1-1.1h4.6
		c0.6,0,1.1,0.5,1.1,1.1v1.7C150.3,243.7,149.8,244.2,149.2,244.2z"/>
	<path id="_x3C_ev45_x3E_" class="st6" [ngClass]="{'evoff': data.drOn === 1 || !data.EVs['45'], 'evon': data.EVs['45'] > 0 && data.drOn !== 1}" d="M492.1,314.1h5.3c0.4,0,0.7,0.3,0.7,0.7v2.4c0,0.4-0.3,0.7-0.7,0.7h-5.3
		c-0.4,0-0.7-0.3-0.7-0.7v-2.4C491.3,314.4,491.7,314.1,492.1,314.1z"/>
	<path id="_x3C_ev46_x3E_" class="st6" [ngClass]="{'evoff': data.drOn === 1 || !data.EVs['46'], 'evon': data.EVs['46'] > 0 && data.drOn !== 1}" d="M549.1,276.9h5.3c0.4,0,0.7,0.3,0.7,0.7v2.4c0,0.4-0.3,0.7-0.7,0.7h-5.3
		c-0.4,0-0.7-0.3-0.7-0.7v-2.4C548.4,277.3,548.7,276.9,549.1,276.9z"/>
	<path id="_x3C_ev47_x3E_" class="st6" [ngClass]="{'evoff': data.drOn === 1 || !data.EVs['47'], 'evon': data.EVs['47'] > 0 && data.drOn !== 1}" d="M547.9,264.6h5.3c0.4,0,0.7,0.3,0.7,0.7v2.4c0,0.4-0.3,0.7-0.7,0.7h-5.3
		c-0.4,0-0.7-0.3-0.7-0.7v-2.4C547.2,264.9,547.5,264.6,547.9,264.6z"/>
	<path id="_x3C_ev50_x3E_" class="st6" [ngClass]="{'evoff': data.drOn === 1 || !data.EVs['50'], 'evon': data.EVs['50'] > 0 && data.drOn !== 1}" d="M484.7,222h5.3c0.4,0,0.7,0.3,0.7,0.7v2.4c0,0.4-0.3,0.7-0.7,0.7h-5.3
		c-0.4,0-0.7-0.3-0.7-0.7v-2.4C484,222.3,484.3,222,484.7,222z"/>
	<path id="_x3C_ev51_x3E_" class="st6" [ngClass]="{'evoff': data.drOn === 1 || !data.EVs['51'], 'evon': data.EVs['51'] > 0 && data.drOn !== 1}" d="M494.3,222h5.3c0.4,0,0.7,0.3,0.7,0.7v2.4c0,0.4-0.3,0.7-0.7,0.7h-5.3
		c-0.4,0-0.7-0.3-0.7-0.7v-2.4C493.6,222.3,493.9,222,494.3,222z"/>
	<path id="_x3C_ev52_x3E_" class="st6" [ngClass]="{'evoff': data.drOn === 1 || !data.EVs['52'], 'evon': data.EVs['52'] > 0 && data.drOn !== 1}" d="M526.3,221h5.3c0.4,0,0.7,0.3,0.7,0.7v2.4c0,0.4-0.3,0.7-0.7,0.7h-5.3
		c-0.4,0-0.7-0.3-0.7-0.7v-2.4C525.6,221.3,525.9,221,526.3,221z"/>
	<path id="_x3C_ev55_x3E_" class="st6" [ngClass]="{'evoff': data.drOn === 1 || !data.EVs['55'], 'evon': data.EVs['55'] > 0 && data.drOn !== 1}" d="M443.5,305.7h5.3c0.4,0,0.7,0.3,0.7,0.7v2.4c0,0.4-0.3,0.7-0.7,0.7h-5.3
		c-0.4,0-0.7-0.3-0.7-0.7v-2.4C442.8,306,443.1,305.7,443.5,305.7z"/>
	<path id="_x3C_ev56_x3E_" class="st6" [ngClass]="{'evoff': data.drOn === 1 || !data.EVs['56'], 'evon': data.EVs['56'] > 0 && data.drOn !== 1}" d="M443.5,287.5h5.3c0.4,0,0.7,0.3,0.7,0.7v2.4c0,0.4-0.3,0.7-0.7,0.7h-5.3
		c-0.4,0-0.7-0.3-0.7-0.7v-2.4C442.8,287.8,443.1,287.5,443.5,287.5z"/>
	<path id="_x3C_ev57_x3E_" class="st6" [ngClass]="{'evoff': data.drOn === 1 || !data.EVs['57'], 'evon': data.EVs['57'] > 0 && data.drOn !== 1}" d="M443.5,275.6h5.3c0.4,0,0.7,0.3,0.7,0.7v2.4c0,0.4-0.3,0.7-0.7,0.7h-5.3
		c-0.4,0-0.7-0.3-0.7-0.7v-2.4C442.8,275.9,443.1,275.6,443.5,275.6z"/>
	<path id="_x3C_ev67_x3E_" class="st6" [ngClass]="{'evoff': data.drOn === 1 || !data.EVs['67'], 'evon': data.EVs['67'] > 0 && data.drOn !== 1}" d="M439.9,233.5v-5.3c0-0.4,0.3-0.7,0.7-0.7h2.4c0.4,0,0.7,0.3,0.7,0.7v5.3
		c0,0.4-0.3,0.7-0.7,0.7h-2.4C440.2,234.2,439.9,233.9,439.9,233.5z"/>
	<path id="_x3C_ev68_x3E_" class="st6" [ngClass]="{'evoff': data.drOn === 1 || !data.EVs['68'], 'evon': data.EVs['68'] > 0 && data.drOn !== 1}" d="M453.8,228.6v-5.3c0-0.4,0.3-0.7,0.7-0.7h2.4c0.4,0,0.7,0.3,0.7,0.7v5.3
		c0,0.4-0.3,0.7-0.7,0.7h-2.4C454.1,229.3,453.8,229,453.8,228.6z"/>
	<path id="_x3C_ev70_x3E_" class="st6" [ngClass]="{'evoff': data.drOn === 1 || !data.EVs['70'], 'evon': data.EVs['70'] > 0 && data.drOn !== 1}" d="M476,230.1v-5.3c0-0.4,0.3-0.7,0.7-0.7h2.4c0.4,0,0.7,0.3,0.7,0.7v5.3
		c0,0.4-0.3,0.7-0.7,0.7h-2.4C476.3,230.8,476,230.5,476,230.1z"/>
	<path id="_x3C_ev115_x3E_" class="st6" [ngClass]="{'evoff': data.drOn === 1 || !data.EVs['115'], 'evon': data.EVs['115'] > 0 && data.drOn !== 1}" d="M528.5,142.2v-5.3c0-0.4,0.3-0.7,0.7-0.7h2.4c0.4,0,0.7,0.3,0.7,0.7v5.3
		c0,0.4-0.3,0.7-0.7,0.7h-2.4C528.8,142.9,528.5,142.6,528.5,142.2z"/>
	<path id="_x3C_ev126_x3E_" class="st6" [ngClass]="{'evoff': data.drOn === 1 || !data.EVs['126'], 'evon': data.EVs['126'] > 0 && data.drOn !== 1}" d="M507.5,215.5h-5.3c-0.4,0-0.7-0.3-0.7-0.7v-2.4c0-0.4,0.3-0.7,0.7-0.7h5.3
		c0.4,0,0.7,0.3,0.7,0.7v2.4C508.3,215.1,507.9,215.5,507.5,215.5z"/>
	<path id="_x3C_ev136_x3E_" class="st6" [ngClass]="{'evoff': data.drOn === 1 || !data.EVs['136'], 'evon': data.EVs['136'] > 0 && data.drOn !== 1}" d="M411.7,210.2v-5.3c0-0.4,0.3-0.7,0.7-0.7h2.4c0.4,0,0.7,0.3,0.7,0.7v5.3
		c0,0.4-0.3,0.7-0.7,0.7h-2.4C412,211,411.7,210.6,411.7,210.2z"/>
	<path id="_x3C_ev140_x3E_" class="st6" [ngClass]="{'evoff': data.drOn === 1 || !data.EVs['140'], 'evon': data.EVs['140'] > 0 && data.drOn !== 1}" d="M375.6,201.8v-5.3c0-0.4,0.3-0.7,0.7-0.7h2.4c0.4,0,0.7,0.3,0.7,0.7v5.3
		c0,0.4-0.3,0.7-0.7,0.7h-2.4C375.9,202.5,375.6,202.2,375.6,201.8z"/>
	<path id="_x3C_ev238_x3E_" class="st6" [ngClass]="{'evoff': data.drOn === 1 || !data.EVs['238'], 'evon': data.EVs['238'] > 0 && data.drOn !== 1}" d="M380.6,232v-5.4c0-0.4,0.3-0.7,0.7-0.7h2.4c0.4,0,0.7,0.3,0.7,0.7v5.3
		c0,0.4-0.3,0.7-0.7,0.7h-2.4C380.9,232.7,380.6,232.4,380.6,232z"/>
	<path id="_x3C_ev240_x3E_" class="st6" [ngClass]="{'evoff': data.drOn === 1 || !data.EVs['240'], 'evon': data.EVs['240'] > 0 && data.drOn !== 1}" d="M390.5,231.8v-5.3c0-0.4,0.3-0.7,0.7-0.7h2.4c0.4,0,0.7,0.3,0.7,0.7v5.3
		c0,0.4-0.3,0.7-0.7,0.7h-2.4C390.8,232.5,390.5,232.2,390.5,231.8z"/>
	<path id="_x3C_ev242_x3E_" class="st6" [ngClass]="{'evoff': data.drOn === 1 || !data.EVs['242'], 'evon': data.EVs['242'] > 0 && data.drOn !== 1}" d="M426.7,264.6v-5.3c0-0.4,0.3-0.7,0.7-0.7h2.4c0.4,0,0.7,0.3,0.7,0.7v5.3
		c0,0.4-0.3,0.7-0.7,0.7h-2.4C427,265.4,426.7,265,426.7,264.6z"/>
	<path id="_x3C_ev257_x3E_" class="st6" [ngClass]="{'evoff': data.drOn === 1 || !data.EVs['257'], 'evon': data.EVs['257'] > 0 && data.drOn !== 1}" d="M340.7,290.2v-5.3c0-0.4,0.3-0.7,0.7-0.7h2.4c0.4,0,0.7,0.3,0.7,0.7v5.3
		c0,0.4-0.3,0.7-0.7,0.7h-2.4C341,290.9,340.7,290.6,340.7,290.2z"/>
	<path id="_x3C_ev258_x3E_" class="st6" [ngClass]="{'evoff': data.drOn === 1 || !data.EVs['258'], 'evon': data.EVs['258'] > 0 && data.drOn !== 1}" d="M340.9,276.6v-5.3c0-0.4,0.3-0.7,0.7-0.7h2.4c0.4,0,0.7,0.3,0.7,0.7v5.3
		c0,0.4-0.3,0.7-0.7,0.7h-2.4C341.2,277.3,340.9,277,340.9,276.6z"/>
	<path id="_x3C_ev306_x3E_" class="st6" [ngClass]="{'evoff': data.drOn === 1 || !data.EVs['306'], 'evon': data.EVs['306'] > 0 && data.drOn !== 1}" d="M398.2,297.1v-5.3c0-0.4,0.3-0.7,0.7-0.7h2.4c0.4,0,0.7,0.3,0.7,0.7v5.3
		c0,0.4-0.3,0.7-0.7,0.7h-2.4C398.5,297.8,398.2,297.5,398.2,297.1z"/>
	<path id="_x3C_ev308_x3E_" class="st6" [ngClass]="{'evoff': data.drOn === 1 || !data.EVs['308'], 'evon': data.EVs['308'] > 0 && data.drOn !== 1}" d="M598,233.5v-5.3c0-0.4,0.3-0.7,0.7-0.7h2.4c0.4,0,0.7,0.3,0.7,0.7v5.3
		c0,0.4-0.3,0.7-0.7,0.7h-2.4C598.3,234.2,598,233.9,598,233.5z"/>
	<path id="_x3C_ev310_x3E_" class="st6" [ngClass]="{'evoff': data.drOn === 1 || !data.EVs['310'], 'evon': data.EVs['310'] > 0 && data.drOn !== 1}" d="M545.2,255.8v-5.3c0-0.4,0.3-0.7,0.7-0.7h2.4c0.4,0,0.7,0.3,0.7,0.7v5.3
		c0,0.4-0.3,0.7-0.7,0.7H546C545.6,256.6,545.2,256.2,545.2,255.8z"/>
	<path id="_x3C_ev314_x3E_" class="st6" [ngClass]="{'evoff': data.drOn === 1 || !data.EVs['314'], 'evon': data.EVs['314'] > 0 && data.drOn !== 1}" d="M352.9,80.4v-5.3c0-0.4,0.3-0.7,0.7-0.7h2.4c0.4,0,0.7,0.3,0.7,0.7v5.3
		c0,0.4-0.3,0.7-0.7,0.7h-2.4C353.2,81.1,352.9,80.8,352.9,80.4z"/>
	<path id="_x3C_ev315_x3E_" class="st6" [ngClass]="{'evoff': data.drOn === 1 || !data.EVs['315'], 'evon': data.EVs['315'] > 0 && data.drOn !== 1}" d="M450.4,131.5v-5.3c0-0.4,0.3-0.7,0.7-0.7h2.4c0.4,0,0.7,0.3,0.7,0.7v5.3
		c0,0.4-0.3,0.7-0.7,0.7h-2.4C450.7,132.2,450.4,131.9,450.4,131.5z"/>
</g>
<circle id="_x3C_dermscircle_x3E_" class="st7" cx="593.8" cy="78.8" r="37.6" *ngIf="type === 'demand flexibility' && data.drOn === 1" />
<g id="_x3C_dermstext_x3E_" *ngIf="type === 'demand flexibility' && data.drOn === 1">
	<path class="st1" d="M578.3,72.5c0.6-0.1,1.2-0.2,2-0.2c1.3,0,2.3,0.3,2.9,0.9c0.6,0.6,1,1.4,1,2.6c0,1.2-0.4,2.2-1,2.8
		c-0.7,0.7-1.8,1-3.2,1c-0.7,0-1.2,0-1.7-0.1V72.5z M579.2,79c0.2,0,0.6,0.1,0.9,0.1c2,0,3.1-1.1,3.1-3.1c0-1.7-1-2.8-2.9-2.8
		c-0.5,0-0.9,0-1.1,0.1V79z"/>
	<path class="st1" d="M589.2,76.3h-2.8v2.6h3.1v0.8h-4.1v-7.2h3.9v0.8h-3v2.3h2.8V76.3z"/>
	<path class="st1" d="M590.8,72.5c0.5-0.1,1.2-0.2,1.8-0.2c1,0,1.6,0.2,2.1,0.6c0.4,0.3,0.6,0.8,0.6,1.4c0,1-0.6,1.6-1.4,1.8v0
		c0.6,0.2,0.9,0.7,1.1,1.5c0.2,1,0.4,1.7,0.6,2h-1c-0.1-0.2-0.3-0.8-0.5-1.7c-0.2-1-0.6-1.4-1.5-1.4h-0.9v3.1h-0.9V72.5z
		 M591.7,75.8h1c1,0,1.6-0.5,1.6-1.4c0-0.9-0.7-1.3-1.7-1.4c-0.5,0-0.8,0-0.9,0.1V75.8z"/>
	<path class="st1" d="M602.7,76.5c-0.1-1-0.1-2.2-0.1-3.1h0c-0.2,0.8-0.5,1.8-0.9,2.8l-1.3,3.5h-0.7l-1.2-3.5c-0.3-1-0.6-2-0.8-2.8
		h0c0,0.9-0.1,2.1-0.1,3.2l-0.2,3.1h-0.9l0.5-7.2h1.2l1.2,3.5c0.3,0.9,0.5,1.7,0.7,2.4h0c0.2-0.7,0.4-1.5,0.8-2.4l1.3-3.5h1.2
		l0.5,7.2h-0.9L602.7,76.5z"/>
	<path class="st1" d="M605.1,78.6c0.4,0.3,1,0.5,1.7,0.5c1,0,1.5-0.5,1.5-1.2c0-0.7-0.4-1.1-1.4-1.4c-1.2-0.4-1.9-1-1.9-2.1
		c0-1.1,0.9-2,2.3-2c0.7,0,1.3,0.2,1.6,0.4l-0.3,0.8c-0.2-0.1-0.7-0.3-1.4-0.3c-1,0-1.4,0.6-1.4,1.1c0,0.7,0.4,1,1.4,1.4
		c1.2,0.5,1.8,1.1,1.8,2.1c0,1.1-0.8,2.1-2.5,2.1c-0.7,0-1.5-0.2-1.8-0.5L605.1,78.6z"/>
</g>
<g id="_x3C_dermsicon_x3E_" *ngIf="type === 'demand flexibility' && data.drOn === 1">
	<path d="M587.8,61.2c0.3-0.3,0.3-0.8,0-1.1c-3.1-3.1-3-8.5,0.2-11.7c3.2-3.2,8.3-3.2,11.5,0c3.2,3.2,3.3,8.5,0.2,11.7
		c-0.3,0.3-0.3,0.8,0,1.1c0.3,0.3,0.8,0.3,1.1,0c3.7-3.7,3.7-10.1-0.2-14c-3.8-3.8-10-3.8-13.8,0c-3.8,3.8-3.9,10.2-0.2,14
		C587,61.5,587.5,61.5,587.8,61.2z"/>
	<path d="M600.3,54.1c0-1.7-0.7-3.4-1.9-4.6c-2.5-2.5-6.6-2.5-9.2,0c0,0,0,0,0,0c-1.2,1.2-1.9,2.9-1.9,4.6c0,1.7,0.7,3.4,1.9,4.6
		c0.3,0.3,0.8,0.3,1.1,0s0.3-0.8,0-1.1c-0.9-0.9-1.4-2.2-1.4-3.4c0-1.3,0.5-2.6,1.4-3.5c1.9-1.9,5-1.9,6.9,0c0,0,0,0,0,0
		c0.9,0.9,1.4,2.2,1.4,3.5c0,1.3-0.5,2.5-1.4,3.4c-0.3,0.3-0.3,0.8,0,1.1c0.3,0.3,0.8,0.3,1.1,0l0,0
		C599.6,57.5,600.3,55.8,600.3,54.1z"/>
	<path d="M577,90.4h33.7c1.7,0,3.1-1.4,3.1-3.1V66.1c0-1.7-1.4-3.1-3.1-3.1h-12.9c0-0.4-0.4-0.8-0.8-0.8h-2.4v-5
		c1.7-0.4,2.8-2.2,2.3-3.9c-0.1-0.6-0.4-1.1-0.9-1.5c-1.3-1.2-3.3-1.2-4.6,0c-1.3,1.3-1.3,3.3,0,4.6c0.4,0.4,0.9,0.7,1.5,0.9v5h-2.4
		c-0.4,0-0.8,0.3-0.8,0.8H577c-1.7,0-3.1,1.4-3.1,3.1v21.2C573.9,89,575.3,90.4,577,90.4z M592.6,55.2c-0.3-0.3-0.5-0.7-0.5-1.1
		c0-0.9,0.7-1.6,1.6-1.6c0.9,0,1.6,0.7,1.6,1.6c0,0.4-0.2,0.8-0.5,1.1C594.3,55.9,593.3,55.9,592.6,55.2z M576.1,66.1
		c0-0.5,0.4-1,1-1h33.7c0.5,0,1,0.4,1,1v21.2c0,0.5-0.4,1-1,1H577c-0.5,0-1-0.4-1-1V66.1z"/>
	<path d="M616.1,105.3v-1.1h0c0,0,0-0.1,0-0.1L614,93.7c-0.2-0.5-0.8-0.9-1.3-0.9l-37.9,0c-0.6,0-1.1,0.4-1.3,1l-2.1,10.3
		c0,0.1,0,0.2,0,0.3h0v1.1c0,0,0,0,0,0v0.1c0,0,0,0,0,0v0.2h0c0.1,0.5,0.5,0.8,1,0.8h42.7c0.5,0,0.9-0.3,1-0.8h0v-0.1
		c0,0,0-0.1,0-0.1L616.1,105.3C616.1,105.4,616.1,105.3,616.1,105.3z M589.1,99.5c0-0.2,0.3-0.4,0.5-0.4l8.8,0
		c0.2,0,0.5,0.2,0.5,0.4l0.4,1.5c0.1,0.2-0.2,0.4-0.4,0.4l-9.7,0c-0.2,0-0.4-0.2-0.3-0.4L589.1,99.5z M613.6,104.5h-39.4
		c-0.4,0-0.7-0.3-0.7-0.7c0-0.4,0.3-0.7,0.7-0.7h39.4c0.4,0,0.7,0.3,0.7,0.7C614.3,104.2,613.9,104.5,613.6,104.5z"/>
</g>
<rect id="_x3C_text_x5F_underline_x3E_" x="15" y="28.5" class="st7" *ngIf="type === 'demand flexibility'" width="621.1" height="2" />
<rect id="_x3C_text_x5F_underline_x3E_" x="15" y="28.5" class="st0" *ngIf="type !== 'demand flexibility'" width="621.1" height="2"  />
<text transform="matrix(1 0 0 1 240.5436 22.1509)" class="st8 st9" [ngClass]="{'df': type === 'demand flexibility'}" *ngIf="type === 'demand flexibility'"> Modified - DR </text>
<text transform="matrix(1 0 0 1 277.5436 22.1509)" class="st8 st9" *ngIf="type !== 'demand flexibility'">Baseline</text>
</svg>
