<svg  *ngIf="data" version="1.1" xmlns="http://www.w3.org/2000/svg" xmlns:xlink="http://www.w3.org/1999/xlink" x="0px" y="0px"
	 viewBox="0 0 437.2 718.22" style="enable-background:new 0 0 437.2 718.22;" xml:space="preserve">
<style type="text/css">
	/*.st0{fill:#E6E6E6;}*/
	.st0{fill:#f2f2f2;}
	.st1{fill:#FFFFFF;}
	.st2{fill:none;stroke:#FFFFFF;stroke-width:6;stroke-miterlimit:10;}
	.st3{fill:none;stroke:#423535;stroke-width:6;stroke-miterlimit:10;}
	.st4{fill:#f2f2f2;}
	.st5{fill-rule:evenodd;clip-rule:evenodd;fill:#64C204;}
</style>
<g id="background">
	<path id="background" class="st0" d="M437.2,707.12c0,0-84.46-4.6-136.13-4.3c-42.12,0.25-133.92,5.92-152.62,4.3
		C120.55,707.41,0,706.04,0,706.04V0h437.2V707.12z"/>
	<g id="roads">
		<polygon class="st1" points="426.59,707.19 412.27,706.1 412.27,0 426.59,0 		"/>
		<path class="st2" d="M10.61,744.32"/>
		<path class="st2" d="M-88,742.08"/>
		<path class="st3" d="M-62.61,698.08"/>
		<rect x="13.94" y="269.02" class="st1" width="423.26" height="6"/>
		<path class="st1" d="M437.2,364.9H15.7c-1.75,0-3.16-1.34-3.16-3s1.42-3,3.16-3h421.5V364.9z"/>
		<path class="st1" d="M14.79,366.46c-0.55,0-1-0.45-1-1v-93.44c0-0.55,0.45-1,1-1s1,0.45,1,1v93.44
			C15.79,366.01,15.34,366.46,14.79,366.46z"/>
		<path class="st1" d="M249.35,271.61c-0.74,0-1.38-0.55-1.48-1.3c-3.92-29.46-18.96-65.87-31.12-85.16
			c-31.21-49.54-45.87-65.14-92.28-98.17C81.49,57.38,83.5,26.99,84.36,14.01c0.05-0.8,0.1-1.54,0.14-2.2
			c0.04-0.83,0.76-1.46,1.57-1.42c0.83,0.04,1.46,0.74,1.42,1.57c-0.03,0.68-0.08,1.43-0.14,2.25
			c-0.83,12.47-2.76,41.66,38.83,70.31c46.83,33.33,61.62,49.06,93.1,99.03c12.64,20.06,27.53,56.17,31.55,86.37
			c0.11,0.82-0.47,1.58-1.29,1.68C249.48,271.61,249.41,271.61,249.35,271.61z"/>
		<path class="st1" d="M240.43,272.52c-0.68,0-1.29-0.46-1.46-1.15c-0.27-1.12-0.58-2.71-0.98-4.72
			c-2.59-13.08-8.64-43.72-28.26-79.67c-22.17-40.64-43.72-63.56-92.23-98.09c-42.98-29.6-40.97-59.99-40.11-72.96
			c0.05-0.8,0.1-1.54,0.14-2.21c0.04-0.83,0.76-1.46,1.57-1.42c0.83,0.04,1.46,0.74,1.42,1.57c-0.03,0.68-0.08,1.43-0.14,2.26
			c-0.83,12.47-2.76,41.66,38.83,70.31c48.96,34.85,70.72,58,93.14,99.11c19.83,36.36,25.95,67.31,28.57,80.53
			c0.39,1.98,0.7,3.54,0.96,4.6c0.19,0.81-0.3,1.62-1.11,1.81C240.66,272.5,240.54,272.52,240.43,272.52z"/>
		<path class="st1" d="M85.55,273.52c-0.83,0-1.5-0.67-1.5-1.5V156.93l0.21-0.36c16.96-28.27,42.44-71.11,44.01-74.8
			c0.01-0.08,0.03-0.17,0.06-0.25c0.26-0.79,1.11-1.21,1.9-0.95c0.43,0.14,0.78,0.49,0.94,0.91c0.36,0.98,0.48,1.31-22.08,39.34
			c-10.14,17.08-20.44,34.27-22.04,36.94v114.26C87.05,272.85,86.38,273.52,85.55,273.52z"/>
		<path class="st1" d="M256.12,94.1c-0.83,0-1.5-0.67-1.5-1.5V11.88c0-0.83,0.67-1.5,1.5-1.5c0.83,0,1.5,0.67,1.5,1.5V92.6
			C257.62,93.43,256.95,94.1,256.12,94.1z"/>
		<path class="st1" d="M152,273.52c-0.83,0-1.5-0.67-1.5-1.5v-98.59c-0.29-11.11,9.54-20.51,9.96-20.91l51.38-51.94l0.08-0.06
			c11.97-9.12,22.22-9.41,22.65-9.42h28.49c0.83,0,1.5,0.67,1.5,1.5s-0.67,1.5-1.5,1.5h-28.46c-0.07,0-9.67,0.31-20.78,8.74
			l-51.27,51.83c-0.13,0.12-9.31,8.93-9.06,18.72l0,98.63C153.5,272.85,152.83,273.52,152,273.52z"/>
		<path class="st1" d="M286.15,14.88L76.52,13.45l-6.97-3.34h-5.18c-1.66,0-3-1.34-3-3s1.34-3,3-3h6.54l6.99,3.35l207.86,1.42
			l25.03-3.39h25.95c1.66,0,3,1.34,3,3s-1.34,3-3,3H311L286.15,14.88z"/>
		<path class="st1" d="M340.38,9.08c-0.44,0-0.89-0.14-1.25-0.44c-0.84-0.69-1-1.9-0.33-2.76c0.26-0.34,2.72-3.28,8.56-3.28
			l69.18-1.12c1.09-0.05,2.01,0.86,2.03,1.97s-0.86,2.01-1.97,2.03l-69.21,1.12c-3.89,0-5.4,1.7-5.46,1.77
			C341.53,8.83,340.95,9.08,340.38,9.08z"/>
		<path class="st1" d="M416.56,15.12c-0.01,0-0.02,0-0.03,0L347.32,14c-5.8,0-8.26-2.95-8.52-3.28c-0.68-0.87-0.52-2.13,0.35-2.81
			c0.86-0.67,2.1-0.53,2.78,0.32c0.1,0.12,1.62,1.77,5.42,1.77l69.24,1.12c1.1,0.02,1.99,0.93,1.97,2.03
			C418.54,14.25,417.65,15.12,416.56,15.12z"/>
	</g>
</g>
<g id="buildings">
	<path id="bldg1" [ngClass]="getClassOf(data.Bldgs['1'])" d="M14.79,22.17v14.22h33.62V22.17H14.79z"/>
	<path id="bldg2" [ngClass]="getClassOf(data.Bldgs['2'])" d="M14.04,53.65v19.3h35.12v-19.3H14.04z"/>
	<path id="bldg3" [ngClass]="getClassOf(data.Bldgs['3'])" d="M14.04,78.02v17.27h34.37V78.02H14.04z"/>
	<path id="bldg4" [ngClass]="getClassOf(data.Bldgs['4'])" d="M55.13,78.02v16.25h33.62V78.02H55.13z"/>
	<path id="bldg5" [ngClass]="getClassOf(data.Bldgs['5'])" d="M91,20.13V37.4h10.46V20.13H91z"/>
	<path id="bldg6" [ngClass]="getClassOf(data.Bldgs['6'])" d="M105.19,30.29v17.27h33.62V30.29H105.19z"/>
	<path id="bldg7" [ngClass]="getClassOf(data.Bldgs['7'])" d="M104.45,50.6v10.16h23.91V50.6H104.45z"/>
	<path id="bldg8" [ngClass]="getClassOf(data.Bldgs['8'])" d="M143.3,20.13v12.19h14.2V20.13H143.3z"/>
	<path id="bldg9" [ngClass]="getClassOf(data.Bldgs['9'])" d="M179.16,18.1v12.19h29.89V18.1H179.16z"/>
	<path id="bldg10" [ngClass]="getClassOf(data.Bldgs['10'])" d="M229.97,18.1v12.19h24.66V18.1H229.97z"/>
	<path id="bldg11" [ngClass]="getClassOf(data.Bldgs['11'])" d="M176.17,39.43v26.41h53.8V39.43H176.17z"/>
	<path id="bldg12" [ngClass]="getClassOf(data.Bldgs['12'])" d="M155.25,72.95v11.17h44.08V72.95H155.25z"/>
	<path id="bldg13" [ngClass]="getClassOf(data.Bldgs['13'])" d="M211.29,73.96v10.16h43.33v-19.3h-13.45v9.14H211.29z"/>
	<path id="bldg14" [ngClass]="getClassOf(data.Bldgs['14'])" d="M265.83,18.1v27.42h35.12V17.09h-11.21v18.28h-13.45V17.09h-10.46V18.1z"/>
	<path id="bldg15" [ngClass]="getClassOf(data.Bldgs['15'])" d="M312.9,18.1v27.42h17.93V18.1H312.9z"/>
	<path id="bldg16" [ngClass]="getClassOf(data.Bldgs['16'])" d="M265.83,57.71v28.44h35.86V67.87h-10.46v9.14H273.3v-4.06h14.94V62.79h-14.2v-4.06
		L265.83,57.71L265.83,57.71z"/>
	<path id="bldg17" [ngClass]="getClassOf(data.Bldgs['17'])" d="M55.13,22.17v14.22H76.8V22.17H55.13z"/>
	<path id="bldg18" [ngClass]="getClassOf(data.Bldgs['18'])" d="M312.9,57.71v27.42h17.93V57.71H312.9z"/>
	<path id="bldg19" [ngClass]="getClassOf(data.Bldgs['19'])" d="M266.58,97.32v30.47h29.89V97.32H266.58z"/>
	<path id="bldg20" [ngClass]="getClassOf(data.Bldgs['20'])" d="M312.9,96.31v30.47h17.93V96.31H312.9z"/>
	<path id="bldg21" [ngClass]="getClassOf(data.Bldgs['21'])" d="M275.55,141v9.14h12.7V141H275.55z"/>
	<path id="bldg22" [ngClass]="getClassOf(data.Bldgs['22'])" d="M312.9,141v8.13l17.93,11.17V141H312.9L312.9,141z"/>
	<path id="bldg23" [ngClass]="getClassOf(data.Bldgs['23'])" d="M342.79,18.1v19.3h9.71v-9.14h16.44v-9.14h-26.15V18.1z"/>
	<path id="bldg24" [ngClass]="getClassOf(data.Bldgs['24'])" d="M371.93,18.1v9.14h13.45V18.1H371.93z"/>
	<path id="bldg25" [ngClass]="getClassOf(data.Bldgs['25'])" d="M391.35,18.1l15.69,14.22h3.74V18.1H391.35L391.35,18.1z"/>
	<path id="bldg26" [ngClass]="getClassOf(data.Bldgs['26'])" d="M342.79,45.53v39.61h8.97V45.53H342.79z"/>
	<path id="bldg27" [ngClass]="getClassOf(data.Bldgs['27'])" d="M354.74,78.03v7.11h14.2v-7.11H354.74z"/>
	<path id="bldg28" [ngClass]="getClassOf(data.Bldgs['28'])" d="M371.93,79.04v7.11h13.45v-7.11H371.93z"/>
	<path id="bldg29" [ngClass]="getClassOf(data.Bldgs['29'])" d="M404.06,53.65v14.22h8.22V53.65H404.06z"/>
	<path id="bldg30" [ngClass]="getClassOf(data.Bldgs['30'])" d="M349.51,97.32v7.11h9.71v-7.11H349.51z"/>
	<path id="bldg31" [ngClass]="getClassOf(data.Bldgs['31'])" d="M343.54,107.48v11.17h6.72v-11.17H343.54z"/>
	<path id="bldg32" [ngClass]="getClassOf(data.Bldgs['32'])" d="M343.54,121.7v7.11H354l16.44-20.31V97.32h-8.22v7.11l-13.45,16.25h-5.23V121.7z"/>
	<path id="bldg33" [ngClass]="getClassOf(data.Bldgs['33'])" d="M401.81,97.32v14.22h10.46V97.32H401.81z"/>
	<path id="bldg34" [ngClass]="getClassOf(data.Bldgs['34'])" d="M402.56,132.87v16.25h9.71v-16.25H402.56z"/>
	<path id="bldg35" [ngClass]="getClassOf(data.Bldgs['35'])" d="M362.96,128.81l-20.17,23.36v22.34h39.6v-8.13h-14.2v-28.44h14.94v-10.16
		C383.14,128.81,362.96,128.81,362.96,128.81z"/>
	<path id="bldg36" [ngClass]="getClassOf(data.Bldgs['36'])" d="M387.62,167.4v8.13h23.16v-8.13H387.62z"/>
	<path id="bldg37" [ngClass]="getClassOf(data.Bldgs['37'])" d="M23.01,190.76l-2.99,2.03l-1.49,2.03v3.05L26,224.28h12.7l-5.98-21.33h8.22v-12.19
		H23.01z"/>
	<path id="bldg38" [ngClass]="getClassOf(data.Bldgs['38'])" d="M68.58,191.78v34.53h14.94v-34.53H68.58z"/>
	<path id="bldg39" [ngClass]="getClassOf(data.Bldgs['39'])" d="M25.25,234.44v33.52h12.7v-33.52H25.25z"/>
	<path id="bldg40" [ngClass]="getClassOf(data.Bldgs['40'])" d="M60.36,234.44v16.25h13.45v16.25h8.97v-32.5H60.36L60.36,234.44z"/>
	<path id="bldg41" [ngClass]="getClassOf(data.Bldgs['41'])" d="M25.25,277.09v13.2h39.6v-13.2H25.25z"/>
	<path id="bldg42" [ngClass]="getClassOf(data.Bldgs['42'])" d="M25.25,297.41v14.22h29.89v-14.22H25.25z"/>
	<path id="bldg43" [ngClass]="getClassOf(data.Bldgs['43'])" d="M70.82,277.09v22.34H64.1v12.19h18.68V277.1L70.82,277.09L70.82,277.09z"/>
	<path id="bldg44" [ngClass]="getClassOf(data.Bldgs['44'])" d="M24.5,320.77v33.52h11.95v-21.33h15.69v-12.19L24.5,320.77L24.5,320.77z"/>
	<path id="bldg45" [ngClass]="getClassOf(data.Bldgs['45'])" d="M58.12,321.78v13.2h14.2v21.33h11.95v-34.53H58.12z"/>
	<path id="bldg46" [ngClass]="getClassOf(data.Bldgs['46'])" d="M24.5,365.46v33.52h14.94v-33.52H24.5z"/>
	<path id="bldg47" [ngClass]="getClassOf(data.Bldgs['47'])" d="M62.61,365.46v33.52h20.92v-16.25h-7.47v-17.27H62.61z"/>
	<path id="bldg48" [ngClass]="getClassOf(data.Bldgs['48'])" d="M25.25,409.13v33.52H37.2v-18.28h10.46v-15.23H25.25z"/>
	<path id="bldg49" [ngClass]="getClassOf(data.Bldgs['49'])" d="M69.33,408.11v33.52h14.2v-33.52H69.33z"/>
	<path id="bldg50" [ngClass]="getClassOf(data.Bldgs['50'])" d="M25.25,451.79v26.41l0.75,5.08l2.24,2.03l13.45,6.09l3.74-12.19l-8.22-4.06v-24.38
		L25.25,451.79L25.25,451.79z"/>
	<path id="bldg51" [ngClass]="getClassOf(data.Bldgs['51'])" d="M52.15,451.79v14.22h15.69v20.31l-4.48,14.22l14.2,5.08l5.98-17.27v-36.56L52.15,451.79
		L52.15,451.79z"/>
	<path id="bldg52" [ngClass]="getClassOf(data.Bldgs['52'])" d="M98.47,172.48v42.66h-1.49v4.06l0.75,5.08l2.24,5.08h3.74v-1.02h25.4v-55.86
		C129.1,172.48,98.47,172.48,98.47,172.48z"/>
	<path id="bldg53" [ngClass]="getClassOf(data.Bldgs['53'])" d="M92.49,240.53l-0.75,25.39l32.13,1.02v-7.11h-2.99v-6.09h-11.21v-1.02h-8.97v-11.17
		L92.49,240.53L92.49,240.53z"/>
	<path id="bldg54" [ngClass]="getClassOf(data.Bldgs['54'])" d="M161.23,201.94v30.47h6.72v-23.36h29.14v-6.09L161.23,201.94L161.23,201.94z"/>
	<path id="bldg55" [ngClass]="getClassOf(data.Bldgs['55'])" d="M188.13,225.3v7.11h21.67v-7.11H188.13z"/>
	<path id="bldg56" [ngClass]="getClassOf(data.Bldgs['56'])" d="M160.48,243.58v22.34h21.67v-7.11h-14.2v-15.23H160.48L160.48,243.58z"/>
	<path id="bldg57" [ngClass]="getClassOf(data.Bldgs['57'])" d="M207.55,203.97l9.71,29.45l6.72-2.03l-9.71-29.45L207.55,203.97z"/>
	<path id="bldg58" [ngClass]="getClassOf(data.Bldgs['58'])" d="M185.89,254.75v12.19h43.33v-10.16h-1.49v-15.23h-8.22v8.13H221v7.11h2.24v3.05h-31.38
		v-4.06C191.86,254.75,185.89,254.75,185.89,254.75z"/>
	<path id="bldg59" [ngClass]="getClassOf(data.Bldgs['59'])" d="M92.49,278.11v19.3h7.47v-12.19h32.13v-7.11L92.49,278.11L92.49,278.11z"/>
	<path id="bldg60" [ngClass]="getClassOf(data.Bldgs['60'])" d="M92.49,302.49v9.14h59.77v-9.14H92.49z"/>
	<path id="bldg61" [ngClass]="getClassOf(data.Bldgs['61'])" d="M137.32,278.11v21.33h14.2v-21.33H137.32z"/>
	<path id="bldg62" [ngClass]="getClassOf(data.Bldgs['62'])" d="M92.49,322.8v9.14h59.03v-9.14H92.49z"/>
	<path id="bldg63" [ngClass]="getClassOf(data.Bldgs['63'])" d="M92.49,334.99v21.33h31.38v-8.13H99.96v-13.2H92.49L92.49,334.99z"/>
	<path id="bldg64" [ngClass]="getClassOf(data.Bldgs['64'])" d="M138.82,337.02v19.3h13.45v-19.3H138.82z"/>
	<path id="bldg65" [ngClass]="getClassOf(data.Bldgs['65'])" d="M93.24,367.49v16.25h26.15v-16.25H93.24z"/>
	<path id="bldg66" [ngClass]="getClassOf(data.Bldgs['66'])" d="M93.24,388.82v9.14h29.89v-9.14H93.24z"/>
	<path id="bldg67" [ngClass]="getClassOf(data.Bldgs['67'])" d="M131.34,368.5v30.47h16.44V368.5H131.34z"/>
	<path id="bldg68" [ngClass]="getClassOf(data.Bldgs['68'])" d="M93.99,424.36v16.25h25.4v-16.25H93.99z"/>
	<path id="bldg69" [ngClass]="getClassOf(data.Bldgs['69'])" d="M131.34,410.15v30.47h16.44v-30.47H131.34z"/>
	<path id="bldg70" [ngClass]="getClassOf(data.Bldgs['70'])" d="M92.49,451.79v48.75h15.69v-48.75H92.49z"/>
	<path id="bldg71" [ngClass]="getClassOf(data.Bldgs['71'])" d="M122.38,451.79v15.23h29.14v-15.23H122.38z"/>
	<path id="bldg72" [ngClass]="getClassOf(data.Bldgs['72'])" d="M95.48,517.8l16.44,29.45l60.52-46.72l-23.91-24.38L95.48,517.8L95.48,517.8z"/>
	<path id="bldg73" [ngClass]="getClassOf(data.Bldgs['73'])" d="M192.61,278.11v54.85h7.47V284.2h17.93v-6.09H192.61z"/>
	<path id="bldg74" [ngClass]="getClassOf(data.Bldgs['74'])" d="M223.99,284.2v19.3h16.44v-19.3H223.99z"/>
	<path id="bldg75" [ngClass]="getClassOf(data.Bldgs['75'])" d="M192.61,340.07v16.25h23.91v-7.11h-17.18v-9.14H192.61z"/>
	<path id="bldg76" [ngClass]="getClassOf(data.Bldgs['76'])" d="M233.7,308.58v38.59h-8.97v6.09h14.94v-45.7C240.43,308.58,233.7,308.58,233.7,308.58z"
		/>
	<path id="bldg77" [ngClass]="getClassOf(data.Bldgs['77'])" d="M262.1,221.23v40.63h29.14v-40.63H262.1z"/>
	<path id="bldg78" [ngClass]="getClassOf(data.Bldgs['78'])" d="M299.45,221.23v41.64h34.37v-8.13h-5.98v-9.14h5.98v-9.14h-5.23v-7.11h5.98v-8.13
		C333.82,221.23,299.45,221.23,299.45,221.23z"/>
	<path id="bldg79" [ngClass]="getClassOf(data.Bldgs['79'])" d="M264.34,283.19l5.23,6.09l5.23-5.08h5.98v11.17h-16.44v7.11h25.4V277.1h-18.68
		C271.06,277.09,264.34,283.19,264.34,283.19z"/>
	<path id="bldg80" [ngClass]="getClassOf(data.Bldgs['80'])" d="M300.2,302.49h9.71v-13.2h5.23v24.38h17.93v-36.56H300.2V302.49L300.2,302.49z"/>
	<path id="bldg81" [ngClass]="getClassOf(data.Bldgs['81'])" d="M264.34,308.58v46.72h24.66v-46.72H264.34z"/>
	<path id="bldg82" [ngClass]="getClassOf(data.Bldgs['82'])" d="M300.95,308.58v34.53h9.71v-34.53H300.95z"/>
	<path id="bldg83" [ngClass]="getClassOf(data.Bldgs['83'])" d="M300.2,347.18v7.11h32.87v-32.5h-11.95v25.39H300.2z"/>
	<path id="bldg84" [ngClass]="getClassOf(data.Bldgs['84'])" d="M262.1,376.63l-14.2,44.69l31.38,10.16l2.99-10.16l-2.99-2.03l4.48-15.23l-7.47-3.05
		l-5.23,16.25l-9.71-3.05l7.47-24.38l10.46,4.06l-0.75,2.03l6.72,2.03l3.74-13.2L262.1,376.63z"/>
	<path id="bldg85" [ngClass]="getClassOf(data.Bldgs['85'])" d="M306.93,365.46v28.44h26.9v-28.44H306.93z"/>
	<path id="bldg86" [ngClass]="getClassOf(data.Bldgs['86'])" d="M298.71,422.33v20.31h34.37v-20.31H298.71z"/>
	<path id="bldg87" [ngClass]="getClassOf(data.Bldgs['87'])" d="M298.71,452.8l-8.97,30.47l29.14,9.14h13.45v-14.22h-1.49v-15.23h2.24v-11.17h-34.37
		V452.8z"/>
	<path id="bldg88" [ngClass]="getClassOf(data.Bldgs['88'])" d="M238.19,451.79l-22.41,33.52l20.92,15.23l23.16-34.53L238.19,451.79L238.19,451.79z"/>
	<path id="bldg89" [ngClass]="getClassOf(data.Bldgs['89'])" d="M211.29,493.43l-9.71,14.22l20.17,15.23l9.71-15.23L211.29,493.43L211.29,493.43z"/>
	<path id="bldg90" [ngClass]="getClassOf(data.Bldgs['90'])" d="M264.34,505.62v17.27h23.91v-17.27H264.34z"/>
	<path id="bldg91" [ngClass]="getClassOf(data.Bldgs['91'])" d="M303.94,504.6v18.28h26.9V504.6H303.94z"/>
	<path id="bldg92" [ngClass]="getClassOf(data.Bldgs['92'])" d="M177.67,527.96l-23.91,26.41l18.68,18.28l15.69-17.27l-2.99-6.09l4.48-6.09l2.99,2.03
		l5.98-7.11l-5.23-4.06l-3.74,4.06L177.67,527.96L177.67,527.96z"/>
	<path id="bldg93" [ngClass]="getClassOf(data.Bldgs['93'])" d="M221.75,542.18l-14.2,31.49l23.16,11.17l14.94-32.5L221.75,542.18z"/>
	<path id="bldg94" [ngClass]="getClassOf(data.Bldgs['94'])" d="M217.27,583.82l-2.99,7.11l11.95,6.09l2.99-7.11L217.27,583.82L217.27,583.82z"/>
	<path id="bldg95" [ngClass]="getClassOf(data.Bldgs['95'])" d="M263.59,542.18v9.14h2.24v15.23h-2.24v12.19h26.15v-9.14H274.8v-6.09h3.74v-7.11h-3.74
		v-5.08h14.94v-8.13L263.59,542.18L263.59,542.18z"/>
	<path id="bldg96" [ngClass]="getClassOf(data.Bldgs['96'])" d="M300.2,543.2v35.55h31.38v-11.17h-16.44v-14.22h16.44V543.2
		C331.58,543.2,300.95,543.2,300.2,543.2z"/>
	<path id="bldg97" [ngClass]="getClassOf(data.Bldgs['97'])" d="M255.37,601.09l-4.48,8.13l9.71,6.09h15.69v-10.16h-14.94L255.37,601.09L255.37,601.09z
		"/>
	<path id="bldg98" [ngClass]="getClassOf(data.Bldgs['98'])" d="M280.78,605.15v10.16h9.71v-10.16H280.78z"/>
	<path id="bldg99" [ngClass]="getClassOf(data.Bldgs['99'])" d="M312.9,605.15v10.16h18.68v-10.16H312.9z"/>
	<path id="bldg100" [ngClass]="getClassOf(data.Bldgs['100'])" d="M115.65,575.7l-16.44,12.19l8.22,13.2l19.43,7.11l3.74-9.14l3.74,2.03l2.24-7.11
		l-12.7-5.08L115.65,575.7z"/>
	<path id="bldg101" [ngClass]="getClassOf(data.Bldgs['101'])" d="M161.98,596.01l-3.74,11.17l14.94,5.08l3.74-11.17L161.98,596.01z"/>
	<path id="bldg102" [ngClass]="getClassOf(data.Bldgs['102'])" d="M167.95,618.35l-3.74,8.13l17.93,8.13l3.74-8.13
		C185.89,625.46,168.7,618.35,167.95,618.35z"/>
	<path id="bldg103" [ngClass]="getClassOf(data.Bldgs['103'])" d="M202.32,610.23l-2.99,9.14l14.94,5.08l2.99-9.14L202.32,610.23z"/>
	<path id="bldg104" [ngClass]="getClassOf(data.Bldgs['104'])" d="M232.21,621.4l-2.99,10.16l13.45,5.08v16.25h9.71v-24.38L232.21,621.4z"/>
	<path id="bldg105" [ngClass]="getClassOf(data.Bldgs['105'])" d="M244.91,676.25v17.27h8.22v-17.27H244.91z"/>
	<path id="bldg106" [ngClass]="getClassOf(data.Bldgs['106'])" d="M53.64,655.93l-2.99,8.13l14.94,6.09h5.98v-8.13h-4.48L53.64,655.93z"/>
	<path id="bldg107" [ngClass]="getClassOf(data.Bldgs['107'])" d="M27.49,677.26v5.08h4.48v-5.08H27.49z"/>
	<path id="bldg108" [ngClass]="getClassOf(data.Bldgs['108'])" d="M34.96,678.28v8.13h9.71v-8.13H34.96z"/>
	<path id="bldg109" [ngClass]="getClassOf(data.Bldgs['109'])" d="M31.23,691.48v7.11h17.18v-7.11H31.23z"/>
	<path id="bldg110" [ngClass]="getClassOf(data.Bldgs['110'])" d="M72.32,690.47v8.13h6.72v-8.13H72.32z"/>
	<path id="bldg111" [ngClass]="getClassOf(data.Bldgs['111'])" d="M99.96,674.22v6.09h13.45v-6.09H99.96z"/>
	<path id="bldg112" [ngClass]="getClassOf(data.Bldgs['112'])" d="M99.96,693.51v6.09h17.93v-6.09H99.96z"/>
	<path id="bldg113" [ngClass]="getClassOf(data.Bldgs['113'])" d="M124.62,674.22v6.09h18.68v-7.11l-8.22,2.03h-10.46V674.22z"/>
	<path id="bldg114" [ngClass]="getClassOf(data.Bldgs['114'])" d="M138.07,690.47v9.14h6.72v-9.14H138.07z"/>
	<path id="bldg115" [ngClass]="getClassOf(data.Bldgs['115'])" d="M265.08,630.54v26.41h12.7v-15.23h12.7v-12.19
		C289.74,630.54,265.08,630.54,265.08,630.54z"/>
	<path id="bldg116" [ngClass]="getClassOf(data.Bldgs['116'])" d="M310.66,629.53v13.2h21.67v-13.2H310.66z"/>
	<path id="bldg117" [ngClass]="getClassOf(data.Bldgs['117'])" d="M266.58,684.37v14.22h23.91v-14.22H266.58z"/>
	<path id="bldg118" [ngClass]="getClassOf(data.Bldgs['118'])" d="M310.66,683.36v14.22h22.41v-28.44h-11.95v14.22
		C321.12,683.36,310.66,683.36,310.66,683.36z"/>
	<path id="bldg119" [ngClass]="getClassOf(data.Bldgs['119'])" d="M342.04,221.23v42.66h41.84v-42.66h-10.46v2.03h-5.98v-2.03h-9.71v2.03h-5.98v-2.03
		H342.04z"/>
	<path id="bldg120" [ngClass]="getClassOf(data.Bldgs['120'])" d="M402.56,221.23v11.17h9.71v-11.17H402.56z"/>
	<path id="bldg121" [ngClass]="getClassOf(data.Bldgs['121'])" d="M396.58,254.75v9.14h14.94v-9.14H396.58z"/>
	<path id="bldg122" [ngClass]="getClassOf(data.Bldgs['122'])" d="M343.54,278.11v10.16h17.93v-10.16H343.54z"/>
	<path id="bldg123" [ngClass]="getClassOf(data.Bldgs['123'])" d="M365.2,278.11v10.16h18.68v-10.16H365.2z"/>
	<path id="bldg124" [ngClass]="getClassOf(data.Bldgs['124'])" d="M402.56,302.49v14.22h9.71v-14.22H402.56z"/>
	<path id="bldg125" [ngClass]="getClassOf(data.Bldgs['125'])" d="M389.11,277.09v10.16h13.45v6.09h9.71v-17.27h-23.16V277.09z"/>
	<path id="bldg126" [ngClass]="getClassOf(data.Bldgs['126'])" d="M342.79,342.1v12.19h35.86V342.1H342.79z"/>
	<path id="bldg127" [ngClass]="getClassOf(data.Bldgs['127'])" d="M400.32,343.11v11.17h11.21v-11.17H400.32z"/>
	<path id="bldg128" [ngClass]="getClassOf(data.Bldgs['128'])" d="M342.79,365.46v28.44h35.86v-28.44H342.79z"/>
	<path id="bldg129" [ngClass]="getClassOf(data.Bldgs['129'])" d="M398.83,365.46v20.31h13.45v-20.31H398.83z"/>
	<path id="bldg130" [ngClass]="getClassOf(data.Bldgs['130'])" d="M398.08,423.35v20.31h13.45v-20.31H398.08z"/>
	<path id="bldg131" [ngClass]="getClassOf(data.Bldgs['131'])" d="M342.04,406.08v37.58h35.86v-10.16H366.7v-17.27h11.95v-10.16H342.04z"/>
	<path id="bldg132" [ngClass]="getClassOf(data.Bldgs['132'])" d="M342.79,452.8v32.5h31.38v-9.14H354v-14.22h20.17v-9.14L342.79,452.8L342.79,452.8z"/>
	<path id="bldg133" [ngClass]="getClassOf(data.Bldgs['133'])" d="M398.83,452.8v24.38h13.45V452.8H398.83z"/>
	<path id="bldg134" [ngClass]="getClassOf(data.Bldgs['134'])" d="M398.83,499.52v26.41h12.7v-26.41H398.83z"/>
	<path id="bldg135" [ngClass]="getClassOf(data.Bldgs['135'])" d="M342.79,492.41v32.5h31.38v-8.13h-18.68v-4.06h1.49v-8.13h-1.49v-5.08h17.93v-8.13
		C373.42,492.41,342.79,492.41,342.79,492.41z"/>
	<path id="bldg136" [ngClass]="getClassOf(data.Bldgs['136'])" d="M345.03,543.2v36.56h24.66V543.2H345.03z"/>
	<path id="bldg137" [ngClass]="getClassOf(data.Bldgs['137'])" d="M396.58,543.2v22.34h13.45V543.2H396.58z"/>
	<path id="bldg138" [ngClass]="getClassOf(data.Bldgs['138'])" d="M345.03,605.15v9.14h18.68v-9.14H345.03z"/>
	<path id="bldg139" [ngClass]="getClassOf(data.Bldgs['139'])" d="M388.37,605.15v9.14h22.41V588.9h-9.71v16.25H388.37z"/>
	<path id="bldg140" [ngClass]="getClassOf(data.Bldgs['140'])" d="M368.19,629.53v12.19h32.87v12.19h8.97v-24.38L368.19,629.53L368.19,629.53z"/>
	<path id="bldg141" [ngClass]="getClassOf(data.Bldgs['141'])" d="M345.03,629.53v12.19h11.95v-12.19H345.03z"/>
	<path id="bldg142" [ngClass]="getClassOf(data.Bldgs['142'])" d="M345.03,684.37v14.22h23.91v-14.22H345.03z"/>
	<path id="bldg143" [ngClass]="getClassOf(data.Bldgs['143'])" d="M396.58,684.37v14.22h14.2v-14.22H396.58z"/>
	<path id="bldg144" [ngClass]="getClassOf(data.Bldgs['144'])" d="M389.11,79.04l3.74,6.09l11.21-8.13l-3.74-6.09
		C400.32,71.93,389.11,79.04,389.11,79.04z"/>
	<path id="bldg145" [ngClass]="getClassOf(data.Bldgs['145'])" d="M13.29,141v40.63h32.13v-41.64H14.79l8.22,8.13h14.2v25.39h-14.2v-24.38L13.29,141z"/>
	<path id="bldg146" [ngClass]="getClassOf(data.Bldgs['146'])" d="M49.9,141v40.63h33.62V141H51.4l7.47,8.13h14.94v24.38H58.87v-23.36
		C59.62,150.14,49.9,141,49.9,141z"/>
	<path id="bldg147" [ngClass]="getClassOf(data.Bldgs['147'])" d="M164.97,414.21v34.53h42.59l17.93-34.53h-59.03l7.47,9.14h35.86l-8.22,16.25h-28.39
		v-15.23C173.19,424.36,164.97,414.21,164.97,414.21z"/>
	<path id="bldg148" [ngClass]="getClassOf(data.Bldgs['148'])" d="M164.22,366.47V401h65.75l8.22-34.53l-10.46,9.14l-3.74,17.27h-12.7V374.6h14.94
		l11.21-9.14h-70.98l6.72,9.14h23.91v18.28h-18.68l-5.98-7.11v-10.16L164.22,366.47L164.22,366.47z"/>
</g>
<g id="derms" *ngIf="type === 'demand flexibility' && data.drOn === 1">
	<circle id="dermscircle" class="st5" cx="218.6" cy="143.03" r="37.6"/>
	<g id="dermstext" *ngIf="type === 'demand flexibility' && data.drOn === 1">
		<path class="st1" d="M203.25,136.73c0.6-0.1,1.2-0.2,2-0.2c1.3,0,2.3,0.3,2.9,0.9c0.6,0.6,1,1.4,1,2.6s-0.4,2.2-1,2.8
			c-0.7,0.7-1.8,1-3.2,1c-0.7,0-1.2,0-1.7-0.1V136.73z M204.15,143.23c0.2,0,0.6,0.1,0.9,0.1c2,0,3.1-1.1,3.1-3.1
			c0-1.7-1-2.8-2.9-2.8c-0.5,0-0.9,0-1.1,0.1V143.23z"/>
		<path class="st1" d="M214.15,140.53h-2.8v2.6h3.1v0.8h-4.1v-7.2h3.9v0.8h-3v2.3h2.8L214.15,140.53L214.15,140.53z"/>
		<path class="st1" d="M215.75,136.73c0.5-0.1,1.2-0.2,1.8-0.2c1,0,1.6,0.2,2.1,0.6c0.4,0.3,0.6,0.8,0.6,1.4c0,1-0.6,1.6-1.4,1.8
			l0,0c0.6,0.2,0.9,0.7,1.1,1.5c0.2,1,0.4,1.7,0.6,2h-1c-0.1-0.2-0.3-0.8-0.5-1.7c-0.2-1-0.6-1.4-1.5-1.4h-0.9v3.1h-0.9
			L215.75,136.73L215.75,136.73z M216.65,140.03h1c1,0,1.6-0.5,1.6-1.4c0-0.9-0.7-1.3-1.7-1.4c-0.5,0-0.8,0-0.9,0.1L216.65,140.03
			L216.65,140.03z"/>
		<path class="st1" d="M227.65,140.73c-0.1-1-0.1-2.2-0.1-3.1l0,0c-0.2,0.8-0.5,1.8-0.9,2.8l-1.3,3.5h-0.7l-1.2-3.5
			c-0.3-1-0.6-2-0.8-2.8l0,0c0,0.9-0.1,2.1-0.1,3.2l-0.2,3.1h-0.9l0.5-7.2h1.2l1.2,3.5c0.3,0.9,0.5,1.7,0.7,2.4l0,0
			c0.2-0.7,0.4-1.5,0.8-2.4l1.3-3.5h1.2l0.5,7.2h-0.9L227.65,140.73z"/>
		<path class="st1" d="M230.05,142.83c0.4,0.3,1,0.5,1.7,0.5c1,0,1.5-0.5,1.5-1.2s-0.4-1.1-1.4-1.4c-1.2-0.4-1.9-1-1.9-2.1
			c0-1.1,0.9-2,2.3-2c0.7,0,1.3,0.2,1.6,0.4l-0.3,0.8c-0.2-0.1-0.7-0.3-1.4-0.3c-1,0-1.4,0.6-1.4,1.1c0,0.7,0.4,1,1.4,1.4
			c1.2,0.5,1.8,1.1,1.8,2.1c0,1.1-0.8,2.1-2.5,2.1c-0.7,0-1.5-0.2-1.8-0.5L230.05,142.83z"/>
	</g>
	<g id="dermsicon">
		<path d="M212.65,125.43c0.3-0.3,0.3-0.8,0-1.1c-3.1-3.1-3-8.5,0.2-11.7c3.2-3.2,8.3-3.2,11.5,0c3.2,3.2,3.3,8.5,0.2,11.7
			c-0.3,0.3-0.3,0.8,0,1.1c0.3,0.3,0.8,0.3,1.1,0c3.7-3.7,3.7-10.1-0.2-14c-3.8-3.8-10-3.8-13.8,0c-3.8,3.8-3.9,10.2-0.2,14
			C211.85,125.73,212.35,125.73,212.65,125.43z"/>
		<path d="M225.15,118.33c0-1.7-0.7-3.4-1.9-4.6c-2.5-2.5-6.6-2.5-9.2,0l0,0c-1.2,1.2-1.9,2.9-1.9,4.6s0.7,3.4,1.9,4.6
			c0.3,0.3,0.8,0.3,1.1,0c0.3-0.3,0.3-0.8,0-1.1c-0.9-0.9-1.4-2.2-1.4-3.4c0-1.3,0.5-2.6,1.4-3.5c1.9-1.9,5-1.9,6.9,0l0,0
			c0.9,0.9,1.4,2.2,1.4,3.5c0,1.3-0.5,2.5-1.4,3.4c-0.3,0.3-0.3,0.8,0,1.1c0.3,0.3,0.8,0.3,1.1,0l0,0
			C224.45,121.73,225.15,120.03,225.15,118.33z"/>
		<path d="M201.85,154.63h33.7c1.7,0,3.1-1.4,3.1-3.1v-21.2c0-1.7-1.4-3.1-3.1-3.1h-12.9c0-0.4-0.4-0.8-0.8-0.8h-2.4v-5
			c1.7-0.4,2.8-2.2,2.3-3.9c-0.1-0.6-0.4-1.1-0.9-1.5c-1.3-1.2-3.3-1.2-4.6,0c-1.3,1.3-1.3,3.3,0,4.6c0.4,0.4,0.9,0.7,1.5,0.9v5
			h-2.4c-0.4,0-0.8,0.3-0.8,0.8h-12.7c-1.7,0-3.1,1.4-3.1,3.1v21.2C198.75,153.23,200.15,154.63,201.85,154.63z M217.45,119.43
			c-0.3-0.3-0.5-0.7-0.5-1.1c0-0.9,0.7-1.6,1.6-1.6c0.9,0,1.6,0.7,1.6,1.6c0,0.4-0.2,0.8-0.5,1.1
			C219.15,120.13,218.15,120.13,217.45,119.43z M200.95,130.33c0-0.5,0.4-1,1-1h33.7c0.5,0,1,0.4,1,1v21.2c0,0.5-0.4,1-1,1h-33.8
			c-0.5,0-1-0.4-1-1L200.95,130.33L200.95,130.33z"/>
		<path d="M240.95,169.53v-1.1l0,0v-0.1l-2.1-10.4c-0.2-0.5-0.8-0.9-1.3-0.9h-37.9c-0.6,0-1.1,0.4-1.3,1l-2.1,10.3
			c0,0.1,0,0.2,0,0.3l0,0v1.1l0,0v0.1l0,0v0.2l0,0c0.1,0.5,0.5,0.8,1,0.8h42.7c0.5,0,0.9-0.3,1-0.8l0,0v-0.1v-0.1L240.95,169.53
			C240.95,169.63,240.95,169.53,240.95,169.53z M213.95,163.73c0-0.2,0.3-0.4,0.5-0.4h8.8c0.2,0,0.5,0.2,0.5,0.4l0.4,1.5
			c0.1,0.2-0.2,0.4-0.4,0.4h-9.7c-0.2,0-0.4-0.2-0.3-0.4L213.95,163.73z M238.45,168.73h-39.4c-0.4,0-0.7-0.3-0.7-0.7
			c0-0.4,0.3-0.7,0.7-0.7h39.4c0.4,0,0.7,0.3,0.7,0.7S238.75,168.73,238.45,168.73z"/>
	</g>
</g>
</svg>
